<svg width="99" height="42" viewBox="0 0 99 42" fill="none" xmlns="http://www.w3.org/2000/svg">
<path d="M13.9527 8.62109H3.72656V33.9356L13.9527 8.62109Z" fill="#191A1F"/>
<path d="M21.1445 8.62109H31.3574V33.9356L21.1445 8.62109Z" fill="#191A1F"/>
<path d="M17.5522 17.9492L24.061 33.9337H19.7907L17.8454 28.8446H13.082L17.5522 17.9492Z" fill="#191A1F"/>
<path d="M48.0452 24.721L49.251 28.3C49.291 28.3896 49.3509 28.431 49.4575 28.431H51.7759C51.9025 28.431 51.9225 28.3689 51.9025 28.2379L47.1125 14.467C47.0925 14.3566 47.0725 14.3359 46.9659 14.3359H44.0879C44.008 14.3359 43.9614 14.398 43.9614 14.4876C43.9214 15.2117 43.8614 15.4324 43.7748 15.6461L39.5045 28.2172C39.4845 28.3689 39.5311 28.431 39.651 28.431H41.7229C41.8495 28.431 41.9095 28.3896 41.9561 28.2586L43.0953 24.721H48.0452ZM43.7548 22.3833C44.3811 20.4249 45.2072 17.9149 45.5403 16.4805H45.5602C45.9733 17.9838 46.9459 20.9628 47.3856 22.3833H43.7548Z" fill="#191A1F"/>
<path d="M58.0608 28.6442C59.3066 28.6442 60.6323 28.4098 61.978 27.8098C62.0846 27.7685 62.1046 27.7202 62.1046 27.6168C62.0646 27.2306 62.018 26.672 62.018 26.2445V13.2804C62.018 13.1976 62.018 13.1562 61.9181 13.1562H59.6597C59.5731 13.1562 59.5331 13.1976 59.5331 13.308V17.7006C59.18 17.6592 58.9335 17.6385 58.6404 17.6385C54.9962 17.6385 52.7578 20.1279 52.7578 23.2379C52.7578 26.8444 55.0562 28.6442 58.0608 28.6442V28.6442ZM59.5331 26.2445C59.16 26.3686 58.747 26.4169 58.3273 26.4169C56.6751 26.4169 55.3227 25.4515 55.3227 23.1069C55.3227 21.0313 56.715 19.8038 58.5604 19.8038C58.9335 19.8038 59.2599 19.8452 59.5331 19.9555V26.2445Z" fill="#191A1F"/>
<path d="M69.3099 17.6367C66.1988 17.6367 64.2734 20.1054 64.2734 23.1534C64.2734 25.8772 65.8057 28.6424 69.2633 28.6424C72.1879 28.6424 74.2398 26.4151 74.2398 23.0844C74.2398 20.1468 72.501 17.6367 69.3099 17.6367ZM69.1833 19.802C70.9421 19.802 71.6883 21.3674 71.6883 23.1534C71.6883 25.36 70.589 26.4565 69.3099 26.4565C67.731 26.4565 66.7983 25.0842 66.7983 23.1051C66.7983 21.0708 67.791 19.802 69.1833 19.802V19.802Z" fill="#191A1F"/>
<path d="M76.5723 13.1562C76.4857 13.1562 76.4258 13.1976 76.4258 13.308V27.9822C76.4258 28.0443 76.4857 28.1546 76.5723 28.1753C77.565 28.4925 78.6043 28.6442 79.6768 28.6442C82.748 28.6442 85.7326 26.672 85.7326 22.7001C85.7326 19.8245 83.8273 17.6385 80.8427 17.6385C80.1565 17.6385 79.517 17.7489 78.9573 17.9419L78.9307 13.3286C78.9307 13.1769 78.8907 13.1562 78.7442 13.1562H76.5723ZM83.1811 22.9621C83.1811 25.3411 81.6088 26.4583 79.91 26.4583C79.5569 26.4583 79.2438 26.4376 78.9573 26.3479V20.0865C79.2838 19.9555 79.6768 19.8452 80.403 19.8452C82.0419 19.8452 83.1811 20.9209 83.1811 22.9621Z" fill="#191A1F"/>
<path d="M94.1611 23.7326C95.1737 23.7326 96.0064 23.7119 96.2929 23.643C96.3995 23.6223 96.4395 23.5809 96.4595 23.4913C96.5194 23.2568 96.5461 22.7672 96.5461 22.1673C96.5461 20.1261 95.3602 17.6367 92.2957 17.6367C89.1646 17.6367 87.4258 20.2778 87.4258 23.2568C87.4258 25.8979 88.7715 28.6424 92.5422 28.6424C93.9546 28.6424 94.8672 28.408 95.6534 28.0218C95.7333 27.9804 95.7733 27.9115 95.7733 27.7874V26.0013C95.7733 25.8979 95.7133 25.8772 95.6534 25.9186C94.8672 26.2634 94.0145 26.4358 93.0818 26.4358C90.97 26.4358 90.0106 25.229 89.9507 23.7326H94.1611ZM89.9507 21.8845C90.1172 20.8364 90.7568 19.6986 92.1891 19.6986C93.768 19.6986 94.1811 21.0708 94.1811 21.6915C94.1811 21.7121 94.1811 21.8018 94.1811 21.8639C94.0945 21.8845 93.828 21.8845 93.0419 21.8845H89.9507Z" fill="#191A1F"/>
</svg>
