<svg width="162" height="42" viewBox="0 0 162 42" fill="none" xmlns="http://www.w3.org/2000/svg">
<mask id="path-1-outside-1_576_1335" maskUnits="userSpaceOnUse" x="1.61328" y="9.36328" width="158" height="23" fill="black">
<rect fill="white" x="1.61328" y="9.36328" width="158" height="23"/>
<path fill-rule="evenodd" clip-rule="evenodd" d="M133.073 10.3637H131.745L131.745 10.3633C131.652 10.9586 131.68 26.2753 131.775 26.5854C131.893 26.5855 132.012 26.5871 132.13 26.5886H132.13C132.445 26.5927 132.761 26.5968 133.073 26.5745V10.3637ZM41.6138 10.3789V15.887H41.6134C41.5632 15.8401 41.5197 15.7999 41.4807 15.7639C41.4064 15.6954 41.3486 15.642 41.2929 15.5866C40.8797 15.1772 40.4033 14.8679 39.8513 14.6912C38.1288 14.1404 35.9982 14.4097 34.5941 16.2097C34.2127 16.699 33.9146 17.2317 33.6979 17.814C33.4111 18.5832 33.2822 19.3834 33.2514 20.1993C33.1997 21.5596 33.3564 22.8841 33.9567 24.1283C35.5838 27.4998 39.6058 27.4051 41.5151 25.6097C41.5574 25.5699 41.6029 25.5335 41.6682 25.4813L41.6683 25.4813C41.7058 25.4513 41.7499 25.4161 41.8035 25.372V26.4689H43.0191V10.3789H41.6138ZM41.6261 20.1868C41.6254 20.3998 41.6247 20.6128 41.6247 20.8258L41.6243 20.8254C41.6244 21.0325 41.6237 21.2398 41.6231 21.447V21.447V21.4471V21.4471V21.4471V21.4472V21.4472V21.4473V21.4473V21.4473V21.4474V21.4474V21.4474L41.6231 21.4505C41.6217 21.9003 41.6202 22.3502 41.6268 22.7999C41.6376 23.5342 41.3566 24.1321 40.8297 24.6222C39.9772 25.4149 38.9517 25.6005 37.8466 25.4591C36.513 25.2883 35.6196 24.5326 35.1119 23.2922C34.7171 22.3274 34.6312 21.3126 34.665 20.2843C34.6888 19.5543 34.7884 18.8331 35.0514 18.146C35.505 16.9603 36.2825 16.1289 37.5548 15.8571C38.1167 15.7372 38.6849 15.7208 39.2494 15.8411C40.5825 16.1251 41.6047 17.384 41.623 18.767C41.6293 19.2403 41.6277 19.7136 41.6261 20.1868ZM2.61328 10.8522H4.91692L6.73628 15.405L6.74064 15.4159C7.7838 18.0263 8.83567 20.6586 9.90229 23.3271C9.9369 23.2464 9.96753 23.1761 9.99526 23.1124L9.99539 23.1121L9.99546 23.112C10.0458 22.9965 10.0866 22.9028 10.1245 22.8079C10.898 20.8811 11.6713 18.9543 12.4446 17.0275C13.2192 15.0977 13.9937 13.1679 14.7684 11.2381C14.7925 11.1782 14.8116 11.1268 14.8281 11.0827L14.8281 11.0826C14.872 10.9646 14.8966 10.8986 14.9439 10.8617C15.004 10.8147 15.1007 10.8145 15.3202 10.8141L15.3954 10.8139C15.826 10.8123 16.2567 10.8118 16.6873 10.8148C16.7797 10.8154 16.8722 10.8217 16.9713 10.8284C17.0167 10.8315 17.0634 10.8347 17.1121 10.8375V26.3183H15.7239V12.7401L15.6343 12.7103C15.6164 12.7487 15.598 12.7869 15.5797 12.8252L15.5797 12.8252L15.5797 12.8252L15.5797 12.8252L15.5797 12.8252L15.5797 12.8253C15.5377 12.9127 15.4957 13.0002 15.4592 13.0898C14.2214 16.1323 12.9844 19.1748 11.7474 22.2174L11.7468 22.2188L10.2729 25.8441C10.2589 25.8786 10.2455 25.9136 10.232 25.9486L10.232 25.9486C10.1951 26.0448 10.1582 26.1411 10.1086 26.2299C10.0161 26.3957 9.80516 26.3969 9.71095 26.2333C9.66629 26.1555 9.63391 26.0704 9.60157 25.9853L9.60157 25.9853C9.58894 25.9521 9.57631 25.9189 9.56296 25.8861L6.96881 19.5098L4.37457 13.1331C4.31829 12.9943 4.25868 12.8567 4.12986 12.7309V26.3347C3.59918 26.3599 3.10644 26.3561 2.61328 26.3359V10.8522ZM158.879 14.937L158.878 14.9389C158.836 15.0287 158.793 15.1186 158.757 15.2111C156.906 19.9237 155.057 24.6367 153.207 29.3494L153.146 29.5045L152.487 31.1854C152.475 31.2149 152.462 31.2436 152.449 31.2724L152.436 31.3006H151.102C151.115 31.2509 151.127 31.2005 151.139 31.1502C151.165 31.0392 151.19 30.9283 151.231 30.8235L151.472 30.2058C152.051 28.7168 152.631 27.2277 153.226 25.745C153.356 25.4227 153.364 25.1539 153.234 24.8278C152.181 22.1734 151.138 19.5151 150.096 16.8565L149.393 15.0634C149.356 14.97 149.324 14.8747 149.288 14.7672C149.271 14.7153 149.253 14.6606 149.232 14.6018H150.717L152.138 18.3995L154.056 23.5256H154.149L155.636 19.5509C156.252 17.9044 156.869 16.2535 157.491 14.593C157.764 14.5859 158.037 14.5786 158.308 14.5714L158.94 14.5547V14.8071H158.939C158.92 14.8501 158.9 14.8928 158.88 14.9355L158.879 14.937ZM55.3659 23.021L56.5669 23.6828C56.5314 23.7526 56.4986 23.8212 56.4665 23.8884C56.3997 24.028 56.3359 24.1612 56.258 24.2854C55.0711 26.1745 53.3474 27.0017 51.1654 26.7956C48.926 26.5839 47.4665 25.2935 46.7283 23.2011C46.108 21.4427 46.1301 19.6373 46.7462 17.8798C47.3473 16.1652 48.4895 14.9223 50.2871 14.5113C53.372 13.8057 55.7848 15.3789 56.5435 18.2938C56.7703 19.1648 56.8474 20.0551 56.7916 21.0098H47.7575C47.7652 21.1171 47.7686 21.2196 47.7718 21.3181V21.3182V21.3183C47.7786 21.5235 47.7847 21.7114 47.8284 21.8896L47.8528 21.9897L47.8528 21.9897C47.9638 22.4446 48.0766 22.9075 48.2719 23.3269C49.0323 24.9611 50.3092 25.6339 52.1793 25.4618C52.4265 25.4391 52.672 25.378 52.9138 25.3175C53.9389 25.0616 54.6442 24.4078 55.1295 23.4851C55.178 23.3932 55.2248 23.3003 55.2804 23.1897L55.2811 23.1883L55.3141 23.1229L55.3659 23.0206V23.021ZM55.2775 19.7551C55.3463 19.3154 55.3154 18.9498 55.1357 18.3401C54.7776 17.1258 54.0977 16.2031 52.8304 15.8539C52.4853 15.7588 52.1209 15.7016 51.7637 15.6902C50.5276 15.6515 49.4621 16.0432 48.7022 17.0732C48.2744 17.653 48.0039 18.314 47.8838 19.0306C47.8581 19.1843 47.8412 19.3398 47.8233 19.5044V19.5045L47.8233 19.5047L47.8233 19.5048L47.8233 19.5048L47.8232 19.5049C47.8145 19.5857 47.8055 19.6686 47.795 19.7547H55.2775V19.7551ZM98.4323 21.022H107.415L107.416 21.0224C107.462 20.1455 107.413 19.3503 107.24 18.5664C106.49 15.1693 103.692 13.7446 100.699 14.5748C98.9713 15.054 97.9133 16.3108 97.3384 17.9808C96.8578 19.376 96.8261 20.8171 97.0937 22.2586C97.5502 24.7191 99.3315 26.6011 101.781 26.8031C103.968 26.9836 105.691 26.1821 106.884 24.2971C106.963 24.1721 107.028 24.037 107.095 23.8939C107.128 23.8261 107.161 23.7565 107.197 23.6853C106.811 23.472 106.456 23.2753 106.092 23.0741L106.056 23.0541L106.054 23.0534L106.029 23.0393L106.01 23.0289L106.001 23.0239L105.976 23.071L105.919 23.1802L105.918 23.1807C105.874 23.2638 105.837 23.334 105.802 23.4051C105.287 24.4456 104.493 25.147 103.347 25.3629C102.861 25.4542 102.352 25.4983 101.859 25.4668C100.652 25.389 99.7338 24.7974 99.1122 23.7425C98.8329 23.2684 98.6257 22.7647 98.5153 22.2257C98.4373 21.8458 98.3598 21.4608 98.4323 21.022ZM105.392 17.4195C105.765 18.1402 105.955 18.9018 105.959 19.7626L105.959 19.7622H98.4219C98.4327 19.673 98.44 19.5852 98.4471 19.4992V19.499L98.4471 19.4989L98.4471 19.4987C98.4623 19.3139 98.4769 19.1368 98.5253 18.9695C98.6528 18.5286 98.7866 18.0822 98.9842 17.6707C99.6662 16.2515 100.854 15.6691 102.368 15.6906C102.698 15.6952 103.034 15.7457 103.354 15.8265C104.259 16.055 104.953 16.5712 105.392 17.4195ZM30.675 20.5769C30.6566 21.6982 30.5457 22.7416 30.1255 23.7228C29.4706 25.2523 28.398 26.3243 26.7497 26.6946C24.271 27.2517 21.9594 26.0925 20.9514 23.674C20.5012 22.5935 20.3862 21.4554 20.4141 20.2975C20.4353 19.4244 20.5496 18.5627 20.8756 17.7477C21.5451 16.0735 22.6865 14.8891 24.4644 14.481C26.8985 13.9222 29.1467 15.155 30.1272 17.5163C30.5428 18.5168 30.6637 19.5683 30.6746 20.5764L30.675 20.5769ZM21.8415 21.072V21.072C21.8668 21.3645 21.9004 21.7523 21.969 22.1336C22.1416 23.0942 22.5514 23.9382 23.2822 24.6043C24.6712 25.8703 26.761 25.779 28.0316 24.3956C28.5339 23.8486 28.8528 23.2028 29.0354 22.4867C29.2955 21.4688 29.3131 20.4355 29.1792 19.4008C29.0759 18.6014 28.8357 17.8449 28.3693 17.1759C27.5038 15.9355 26.1323 15.4184 24.6774 15.8017C23.4318 16.1299 22.6669 16.9857 22.2096 18.1571C21.9102 18.9241 21.841 19.7328 21.816 20.7944L21.8156 20.7935C21.824 20.8701 21.8322 20.9646 21.8415 21.072L21.8415 21.072ZM67.6186 26.3345H68.9643V25.8342L68.9642 24.1311C68.9641 22.428 68.9641 20.7249 68.9647 19.0218L68.9645 18.9313V18.9311C68.9641 18.7651 68.9637 18.5987 68.9764 18.4336C69.0552 17.4095 69.5237 16.6286 70.4137 16.1153C70.9457 15.8085 71.5276 15.6857 72.13 15.6646C73.8308 15.6049 74.9297 16.5444 75.1469 18.2485C75.1965 18.6364 75.2199 19.0302 75.2211 19.4215C75.2264 21.0148 75.2257 22.6081 75.2249 24.2014C75.2247 24.7527 75.2244 25.304 75.2244 25.8553V26.3248C75.7201 26.3623 76.167 26.3522 76.6422 26.337V25.9508L76.6424 24.4348C76.6428 22.5152 76.6431 20.5955 76.6385 18.676C76.6381 18.3827 76.6122 18.0869 76.5672 17.7974C76.3317 16.2882 75.5283 15.1774 74.1056 14.6696C72.2868 14.0208 70.5776 14.2698 69.1173 15.6474C69.1009 15.6629 69.0806 15.6739 69.0457 15.693C69.0246 15.7045 68.9981 15.719 68.9639 15.7391V14.7306C68.4811 14.6414 67.8637 14.654 67.574 14.7487C67.4898 15.5961 67.5286 26.0307 67.6186 26.3345ZM86.2426 10.8398H95.2787V12.129H87.6716V18.2459H94.653V19.5233H87.6591V26.3286C87.2573 26.3583 86.8831 26.3514 86.4964 26.3443L86.4959 26.3443C86.4122 26.3427 86.3279 26.3412 86.2426 26.34V10.8398ZM141.539 15.9612H143.106V16.488C143.106 17.0145 143.106 17.541 143.106 18.0675C143.105 19.7146 143.105 21.3617 143.11 23.0088C143.111 23.3862 143.131 23.7674 143.19 24.1394C143.349 25.137 143.821 25.8989 144.833 26.2137C145.321 26.3655 145.817 26.3557 146.323 26.3457C146.45 26.3432 146.578 26.3407 146.706 26.3407V24.9539C146.65 24.9513 146.597 24.9487 146.546 24.9462C146.45 24.9414 146.362 24.937 146.273 24.9337C146.195 24.9308 146.117 24.9293 146.039 24.9278C145.881 24.9248 145.723 24.9218 145.566 24.9068C145.085 24.8614 144.755 24.6085 144.651 24.1259C144.581 23.7998 144.528 23.4619 144.526 23.1291C144.517 21.228 144.518 19.3266 144.52 17.4254L144.521 16.3138C144.521 16.2426 144.529 16.1715 144.539 16.0874L144.539 16.0872C144.545 16.0446 144.55 15.9986 144.555 15.9477H147.312V14.6173H144.502V11.7642C144.392 11.7636 144.284 11.7623 144.179 11.761C143.827 11.7569 143.496 11.7529 143.143 11.7755V14.6392H141.539V15.9612ZM118.648 11.7773H120.002V14.6225H122.808V15.9516H120.041C120.037 16.006 120.033 16.0555 120.029 16.1018L120.029 16.1028L120.029 16.1034C120.021 16.1977 120.015 16.2788 120.015 16.3598L120.014 17.5477C120.012 19.3802 120.011 21.2128 120.02 23.0451C120.021 23.3922 120.063 23.7461 120.14 24.0844C120.265 24.6267 120.557 24.8602 121.103 24.912C121.266 24.9275 121.43 24.9295 121.594 24.9315C121.652 24.9322 121.711 24.933 121.769 24.9343C121.86 24.9363 121.951 24.9358 122.051 24.9352C122.101 24.935 122.152 24.9347 122.207 24.9347V26.3299C122.144 26.3322 122.082 26.3347 122.02 26.3372C121.383 26.363 120.757 26.3884 120.151 26.1511C119.215 25.7846 118.817 25.0155 118.678 24.0755C118.623 23.7032 118.606 23.322 118.606 22.9445C118.601 21.3263 118.601 19.7083 118.602 18.0902L118.602 18.0344C118.602 17.5128 118.602 16.9912 118.602 16.4696V15.9647H117.027V14.6477C117.552 14.6385 118.083 14.6292 118.648 14.6195V11.7773ZM115.612 14.759L115.465 15.4932L115.332 16.1647C115.193 16.1587 115.058 16.1482 114.925 16.1378C114.641 16.1156 114.369 16.0944 114.102 16.1214C113.209 16.2114 112.619 16.7399 112.355 17.586C112.224 18.006 112.171 18.4658 112.168 18.9085C112.154 20.6853 112.156 22.4623 112.158 24.2394C112.158 24.832 112.159 25.4245 112.159 26.0171V26.5721C111.85 26.592 111.551 26.5894 111.259 26.5869H111.259C111.101 26.5855 110.944 26.5842 110.789 26.5864C110.685 26.2721 110.661 15.2732 110.761 14.8036H112.086V15.9157L112.152 15.9657C113.016 14.7565 114.135 14.3239 115.612 14.7586L115.612 14.759ZM64.9739 14.7787L64.974 14.7783V14.7787L64.9739 14.7787ZM63.6675 14.6016C64.1056 14.5431 64.5183 14.6197 64.9739 14.7787L64.8177 15.5774L64.693 16.2148C64.6528 16.2072 64.6151 16.2003 64.5789 16.1936L64.5788 16.1936C64.5208 16.183 64.4666 16.173 64.4124 16.1622C63.8397 16.0469 63.2752 16.054 62.7466 16.3351C61.9871 16.739 61.6628 17.4307 61.5644 18.2504C61.526 18.5693 61.5252 18.8941 61.5248 19.2164C61.5223 20.9195 61.5226 22.6226 61.5229 24.3257L61.5231 26.0313V26.5607H60.1328C60.0511 26.2699 60.0207 15.5176 60.1045 14.8263C60.3899 14.7772 60.6787 14.7834 60.9832 14.79C61.1378 14.7933 61.2964 14.7967 61.4606 14.793V15.9568C61.5705 15.8529 61.674 15.7506 61.7744 15.6512C61.9947 15.4334 62.2004 15.23 62.4277 15.0552C62.7854 14.78 63.2194 14.6613 63.6675 14.6016ZM126.102 14.6016H127.481C127.571 14.9058 127.604 25.6211 127.513 26.3275C127.182 26.3569 126.846 26.3513 126.512 26.3458L126.512 26.3458C126.386 26.3437 126.261 26.3416 126.137 26.3414C126.044 26.0258 126.012 15.2743 126.102 14.6016ZM137.279 26.3248H138.725V14.6094H137.279V26.3248ZM125.891 10.8398H127.716V12.5691C127.422 12.6675 126.357 12.6852 125.891 12.5956V10.8398ZM138.913 12.6159V10.8438H137.105V12.6159H138.913Z"/>
</mask>
<path fill-rule="evenodd" clip-rule="evenodd" d="M133.073 10.3637H131.745L131.745 10.3633C131.652 10.9586 131.68 26.2753 131.775 26.5854C131.893 26.5855 132.012 26.5871 132.13 26.5886H132.13C132.445 26.5927 132.761 26.5968 133.073 26.5745V10.3637ZM41.6138 10.3789V15.887H41.6134C41.5632 15.8401 41.5197 15.7999 41.4807 15.7639C41.4064 15.6954 41.3486 15.642 41.2929 15.5866C40.8797 15.1772 40.4033 14.8679 39.8513 14.6912C38.1288 14.1404 35.9982 14.4097 34.5941 16.2097C34.2127 16.699 33.9146 17.2317 33.6979 17.814C33.4111 18.5832 33.2822 19.3834 33.2514 20.1993C33.1997 21.5596 33.3564 22.8841 33.9567 24.1283C35.5838 27.4998 39.6058 27.4051 41.5151 25.6097C41.5574 25.5699 41.6029 25.5335 41.6682 25.4813L41.6683 25.4813C41.7058 25.4513 41.7499 25.4161 41.8035 25.372V26.4689H43.0191V10.3789H41.6138ZM41.6261 20.1868C41.6254 20.3998 41.6247 20.6128 41.6247 20.8258L41.6243 20.8254C41.6244 21.0325 41.6237 21.2398 41.6231 21.447V21.447V21.4471V21.4471V21.4471V21.4472V21.4472V21.4473V21.4473V21.4473V21.4474V21.4474V21.4474L41.6231 21.4505C41.6217 21.9003 41.6202 22.3502 41.6268 22.7999C41.6376 23.5342 41.3566 24.1321 40.8297 24.6222C39.9772 25.4149 38.9517 25.6005 37.8466 25.4591C36.513 25.2883 35.6196 24.5326 35.1119 23.2922C34.7171 22.3274 34.6312 21.3126 34.665 20.2843C34.6888 19.5543 34.7884 18.8331 35.0514 18.146C35.505 16.9603 36.2825 16.1289 37.5548 15.8571C38.1167 15.7372 38.6849 15.7208 39.2494 15.8411C40.5825 16.1251 41.6047 17.384 41.623 18.767C41.6293 19.2403 41.6277 19.7136 41.6261 20.1868ZM2.61328 10.8522H4.91692L6.73628 15.405L6.74064 15.4159C7.7838 18.0263 8.83567 20.6586 9.90229 23.3271C9.9369 23.2464 9.96753 23.1761 9.99526 23.1124L9.99539 23.1121L9.99546 23.112C10.0458 22.9965 10.0866 22.9028 10.1245 22.8079C10.898 20.8811 11.6713 18.9543 12.4446 17.0275C13.2192 15.0977 13.9937 13.1679 14.7684 11.2381C14.7925 11.1782 14.8116 11.1268 14.8281 11.0827L14.8281 11.0826C14.872 10.9646 14.8966 10.8986 14.9439 10.8617C15.004 10.8147 15.1007 10.8145 15.3202 10.8141L15.3954 10.8139C15.826 10.8123 16.2567 10.8118 16.6873 10.8148C16.7797 10.8154 16.8722 10.8217 16.9713 10.8284C17.0167 10.8315 17.0634 10.8347 17.1121 10.8375V26.3183H15.7239V12.7401L15.6343 12.7103C15.6164 12.7487 15.598 12.7869 15.5797 12.8252L15.5797 12.8252L15.5797 12.8252L15.5797 12.8252L15.5797 12.8252L15.5797 12.8253C15.5377 12.9127 15.4957 13.0002 15.4592 13.0898C14.2214 16.1323 12.9844 19.1748 11.7474 22.2174L11.7468 22.2188L10.2729 25.8441C10.2589 25.8786 10.2455 25.9136 10.232 25.9486L10.232 25.9486C10.1951 26.0448 10.1582 26.1411 10.1086 26.2299C10.0161 26.3957 9.80516 26.3969 9.71095 26.2333C9.66629 26.1555 9.63391 26.0704 9.60157 25.9853L9.60157 25.9853C9.58894 25.9521 9.57631 25.9189 9.56296 25.8861L6.96881 19.5098L4.37457 13.1331C4.31829 12.9943 4.25868 12.8567 4.12986 12.7309V26.3347C3.59918 26.3599 3.10644 26.3561 2.61328 26.3359V10.8522ZM158.879 14.937L158.878 14.9389C158.836 15.0287 158.793 15.1186 158.757 15.2111C156.906 19.9237 155.057 24.6367 153.207 29.3494L153.146 29.5045L152.487 31.1854C152.475 31.2149 152.462 31.2436 152.449 31.2724L152.436 31.3006H151.102C151.115 31.2509 151.127 31.2005 151.139 31.1502C151.165 31.0392 151.19 30.9283 151.231 30.8235L151.472 30.2058C152.051 28.7168 152.631 27.2277 153.226 25.745C153.356 25.4227 153.364 25.1539 153.234 24.8278C152.181 22.1734 151.138 19.5151 150.096 16.8565L149.393 15.0634C149.356 14.97 149.324 14.8747 149.288 14.7672C149.271 14.7153 149.253 14.6606 149.232 14.6018H150.717L152.138 18.3995L154.056 23.5256H154.149L155.636 19.5509C156.252 17.9044 156.869 16.2535 157.491 14.593C157.764 14.5859 158.037 14.5786 158.308 14.5714L158.94 14.5547V14.8071H158.939C158.92 14.8501 158.9 14.8928 158.88 14.9355L158.879 14.937ZM55.3659 23.021L56.5669 23.6828C56.5314 23.7526 56.4986 23.8212 56.4665 23.8884C56.3997 24.028 56.3359 24.1612 56.258 24.2854C55.0711 26.1745 53.3474 27.0017 51.1654 26.7956C48.926 26.5839 47.4665 25.2935 46.7283 23.2011C46.108 21.4427 46.1301 19.6373 46.7462 17.8798C47.3473 16.1652 48.4895 14.9223 50.2871 14.5113C53.372 13.8057 55.7848 15.3789 56.5435 18.2938C56.7703 19.1648 56.8474 20.0551 56.7916 21.0098H47.7575C47.7652 21.1171 47.7686 21.2196 47.7718 21.3181V21.3182V21.3183C47.7786 21.5235 47.7847 21.7114 47.8284 21.8896L47.8528 21.9897L47.8528 21.9897C47.9638 22.4446 48.0766 22.9075 48.2719 23.3269C49.0323 24.9611 50.3092 25.6339 52.1793 25.4618C52.4265 25.4391 52.672 25.378 52.9138 25.3175C53.9389 25.0616 54.6442 24.4078 55.1295 23.4851C55.178 23.3932 55.2248 23.3003 55.2804 23.1897L55.2811 23.1883L55.3141 23.1229L55.3659 23.0206V23.021ZM55.2775 19.7551C55.3463 19.3154 55.3154 18.9498 55.1357 18.3401C54.7776 17.1258 54.0977 16.2031 52.8304 15.8539C52.4853 15.7588 52.1209 15.7016 51.7637 15.6902C50.5276 15.6515 49.4621 16.0432 48.7022 17.0732C48.2744 17.653 48.0039 18.314 47.8838 19.0306C47.8581 19.1843 47.8412 19.3398 47.8233 19.5044V19.5045L47.8233 19.5047L47.8233 19.5048L47.8233 19.5048L47.8232 19.5049C47.8145 19.5857 47.8055 19.6686 47.795 19.7547H55.2775V19.7551ZM98.4323 21.022H107.415L107.416 21.0224C107.462 20.1455 107.413 19.3503 107.24 18.5664C106.49 15.1693 103.692 13.7446 100.699 14.5748C98.9713 15.054 97.9133 16.3108 97.3384 17.9808C96.8578 19.376 96.8261 20.8171 97.0937 22.2586C97.5502 24.7191 99.3315 26.6011 101.781 26.8031C103.968 26.9836 105.691 26.1821 106.884 24.2971C106.963 24.1721 107.028 24.037 107.095 23.8939C107.128 23.8261 107.161 23.7565 107.197 23.6853C106.811 23.472 106.456 23.2753 106.092 23.0741L106.056 23.0541L106.054 23.0534L106.029 23.0393L106.01 23.0289L106.001 23.0239L105.976 23.071L105.919 23.1802L105.918 23.1807C105.874 23.2638 105.837 23.334 105.802 23.4051C105.287 24.4456 104.493 25.147 103.347 25.3629C102.861 25.4542 102.352 25.4983 101.859 25.4668C100.652 25.389 99.7338 24.7974 99.1122 23.7425C98.8329 23.2684 98.6257 22.7647 98.5153 22.2257C98.4373 21.8458 98.3598 21.4608 98.4323 21.022ZM105.392 17.4195C105.765 18.1402 105.955 18.9018 105.959 19.7626L105.959 19.7622H98.4219C98.4327 19.673 98.44 19.5852 98.4471 19.4992V19.499L98.4471 19.4989L98.4471 19.4987C98.4623 19.3139 98.4769 19.1368 98.5253 18.9695C98.6528 18.5286 98.7866 18.0822 98.9842 17.6707C99.6662 16.2515 100.854 15.6691 102.368 15.6906C102.698 15.6952 103.034 15.7457 103.354 15.8265C104.259 16.055 104.953 16.5712 105.392 17.4195ZM30.675 20.5769C30.6566 21.6982 30.5457 22.7416 30.1255 23.7228C29.4706 25.2523 28.398 26.3243 26.7497 26.6946C24.271 27.2517 21.9594 26.0925 20.9514 23.674C20.5012 22.5935 20.3862 21.4554 20.4141 20.2975C20.4353 19.4244 20.5496 18.5627 20.8756 17.7477C21.5451 16.0735 22.6865 14.8891 24.4644 14.481C26.8985 13.9222 29.1467 15.155 30.1272 17.5163C30.5428 18.5168 30.6637 19.5683 30.6746 20.5764L30.675 20.5769ZM21.8415 21.072V21.072C21.8668 21.3645 21.9004 21.7523 21.969 22.1336C22.1416 23.0942 22.5514 23.9382 23.2822 24.6043C24.6712 25.8703 26.761 25.779 28.0316 24.3956C28.5339 23.8486 28.8528 23.2028 29.0354 22.4867C29.2955 21.4688 29.3131 20.4355 29.1792 19.4008C29.0759 18.6014 28.8357 17.8449 28.3693 17.1759C27.5038 15.9355 26.1323 15.4184 24.6774 15.8017C23.4318 16.1299 22.6669 16.9857 22.2096 18.1571C21.9102 18.9241 21.841 19.7328 21.816 20.7944L21.8156 20.7935C21.824 20.8701 21.8322 20.9646 21.8415 21.072L21.8415 21.072ZM67.6186 26.3345H68.9643V25.8342L68.9642 24.1311C68.9641 22.428 68.9641 20.7249 68.9647 19.0218L68.9645 18.9313V18.9311C68.9641 18.7651 68.9637 18.5987 68.9764 18.4336C69.0552 17.4095 69.5237 16.6286 70.4137 16.1153C70.9457 15.8085 71.5276 15.6857 72.13 15.6646C73.8308 15.6049 74.9297 16.5444 75.1469 18.2485C75.1965 18.6364 75.2199 19.0302 75.2211 19.4215C75.2264 21.0148 75.2257 22.6081 75.2249 24.2014C75.2247 24.7527 75.2244 25.304 75.2244 25.8553V26.3248C75.7201 26.3623 76.167 26.3522 76.6422 26.337V25.9508L76.6424 24.4348C76.6428 22.5152 76.6431 20.5955 76.6385 18.676C76.6381 18.3827 76.6122 18.0869 76.5672 17.7974C76.3317 16.2882 75.5283 15.1774 74.1056 14.6696C72.2868 14.0208 70.5776 14.2698 69.1173 15.6474C69.1009 15.6629 69.0806 15.6739 69.0457 15.693C69.0246 15.7045 68.9981 15.719 68.9639 15.7391V14.7306C68.4811 14.6414 67.8637 14.654 67.574 14.7487C67.4898 15.5961 67.5286 26.0307 67.6186 26.3345ZM86.2426 10.8398H95.2787V12.129H87.6716V18.2459H94.653V19.5233H87.6591V26.3286C87.2573 26.3583 86.8831 26.3514 86.4964 26.3443L86.4959 26.3443C86.4122 26.3427 86.3279 26.3412 86.2426 26.34V10.8398ZM141.539 15.9612H143.106V16.488C143.106 17.0145 143.106 17.541 143.106 18.0675C143.105 19.7146 143.105 21.3617 143.11 23.0088C143.111 23.3862 143.131 23.7674 143.19 24.1394C143.349 25.137 143.821 25.8989 144.833 26.2137C145.321 26.3655 145.817 26.3557 146.323 26.3457C146.45 26.3432 146.578 26.3407 146.706 26.3407V24.9539C146.65 24.9513 146.597 24.9487 146.546 24.9462C146.45 24.9414 146.362 24.937 146.273 24.9337C146.195 24.9308 146.117 24.9293 146.039 24.9278C145.881 24.9248 145.723 24.9218 145.566 24.9068C145.085 24.8614 144.755 24.6085 144.651 24.1259C144.581 23.7998 144.528 23.4619 144.526 23.1291C144.517 21.228 144.518 19.3266 144.52 17.4254L144.521 16.3138C144.521 16.2426 144.529 16.1715 144.539 16.0874L144.539 16.0872C144.545 16.0446 144.55 15.9986 144.555 15.9477H147.312V14.6173H144.502V11.7642C144.392 11.7636 144.284 11.7623 144.179 11.761C143.827 11.7569 143.496 11.7529 143.143 11.7755V14.6392H141.539V15.9612ZM118.648 11.7773H120.002V14.6225H122.808V15.9516H120.041C120.037 16.006 120.033 16.0555 120.029 16.1018L120.029 16.1028L120.029 16.1034C120.021 16.1977 120.015 16.2788 120.015 16.3598L120.014 17.5477C120.012 19.3802 120.011 21.2128 120.02 23.0451C120.021 23.3922 120.063 23.7461 120.14 24.0844C120.265 24.6267 120.557 24.8602 121.103 24.912C121.266 24.9275 121.43 24.9295 121.594 24.9315C121.652 24.9322 121.711 24.933 121.769 24.9343C121.86 24.9363 121.951 24.9358 122.051 24.9352C122.101 24.935 122.152 24.9347 122.207 24.9347V26.3299C122.144 26.3322 122.082 26.3347 122.02 26.3372C121.383 26.363 120.757 26.3884 120.151 26.1511C119.215 25.7846 118.817 25.0155 118.678 24.0755C118.623 23.7032 118.606 23.322 118.606 22.9445C118.601 21.3263 118.601 19.7083 118.602 18.0902L118.602 18.0344C118.602 17.5128 118.602 16.9912 118.602 16.4696V15.9647H117.027V14.6477C117.552 14.6385 118.083 14.6292 118.648 14.6195V11.7773ZM115.612 14.759L115.465 15.4932L115.332 16.1647C115.193 16.1587 115.058 16.1482 114.925 16.1378C114.641 16.1156 114.369 16.0944 114.102 16.1214C113.209 16.2114 112.619 16.7399 112.355 17.586C112.224 18.006 112.171 18.4658 112.168 18.9085C112.154 20.6853 112.156 22.4623 112.158 24.2394C112.158 24.832 112.159 25.4245 112.159 26.0171V26.5721C111.85 26.592 111.551 26.5894 111.259 26.5869H111.259C111.101 26.5855 110.944 26.5842 110.789 26.5864C110.685 26.2721 110.661 15.2732 110.761 14.8036H112.086V15.9157L112.152 15.9657C113.016 14.7565 114.135 14.3239 115.612 14.7586L115.612 14.759ZM64.9739 14.7787L64.974 14.7783V14.7787L64.9739 14.7787ZM63.6675 14.6016C64.1056 14.5431 64.5183 14.6197 64.9739 14.7787L64.8177 15.5774L64.693 16.2148C64.6528 16.2072 64.6151 16.2003 64.5789 16.1936L64.5788 16.1936C64.5208 16.183 64.4666 16.173 64.4124 16.1622C63.8397 16.0469 63.2752 16.054 62.7466 16.3351C61.9871 16.739 61.6628 17.4307 61.5644 18.2504C61.526 18.5693 61.5252 18.8941 61.5248 19.2164C61.5223 20.9195 61.5226 22.6226 61.5229 24.3257L61.5231 26.0313V26.5607H60.1328C60.0511 26.2699 60.0207 15.5176 60.1045 14.8263C60.3899 14.7772 60.6787 14.7834 60.9832 14.79C61.1378 14.7933 61.2964 14.7967 61.4606 14.793V15.9568C61.5705 15.8529 61.674 15.7506 61.7744 15.6512C61.9947 15.4334 62.2004 15.23 62.4277 15.0552C62.7854 14.78 63.2194 14.6613 63.6675 14.6016ZM126.102 14.6016H127.481C127.571 14.9058 127.604 25.6211 127.513 26.3275C127.182 26.3569 126.846 26.3513 126.512 26.3458L126.512 26.3458C126.386 26.3437 126.261 26.3416 126.137 26.3414C126.044 26.0258 126.012 15.2743 126.102 14.6016ZM137.279 26.3248H138.725V14.6094H137.279V26.3248ZM125.891 10.8398H127.716V12.5691C127.422 12.6675 126.357 12.6852 125.891 12.5956V10.8398ZM138.913 12.6159V10.8438H137.105V12.6159H138.913Z" fill="#191A1F"/>
<path d="M131.745 10.3637L131.388 10.7135C131.482 10.8096 131.611 10.8637 131.745 10.8637V10.3637ZM133.073 10.3637H133.573C133.573 10.0876 133.349 9.8637 133.073 9.8637V10.3637ZM131.745 10.3633L132.102 10.0135C131.969 9.87831 131.772 9.82941 131.592 9.88711C131.412 9.94481 131.28 10.0992 131.251 10.2861L131.745 10.3633ZM131.775 26.5854L131.298 26.7331C131.362 26.9424 131.556 27.0852 131.775 27.0854L131.775 26.5854ZM132.13 26.5886L132.124 27.0886H132.13V26.5886ZM132.13 26.5886L132.137 26.0886H132.13V26.5886ZM133.073 26.5745L133.109 27.0732C133.37 27.0545 133.573 26.8368 133.573 26.5745H133.073ZM41.6138 15.887V16.387C41.89 16.387 42.1138 16.1631 42.1138 15.887H41.6138ZM41.6138 10.3789V9.87891C41.3377 9.87891 41.1138 10.1028 41.1138 10.3789H41.6138ZM41.6134 15.887L41.2721 16.2523C41.3647 16.3389 41.4867 16.387 41.6134 16.387V15.887ZM41.4807 15.7639L41.1416 16.1314L41.1416 16.1314L41.4807 15.7639ZM41.2929 15.5866L41.6454 15.232L41.6448 15.2314L41.2929 15.5866ZM39.8513 14.6912L40.0038 14.215L40.0036 14.215L39.8513 14.6912ZM34.5941 16.2097L34.1999 15.9022L34.1998 15.9023L34.5941 16.2097ZM33.6979 17.814L34.1664 17.9887L34.1665 17.9885L33.6979 17.814ZM33.2514 20.1993L33.751 20.2183L33.751 20.2182L33.2514 20.1993ZM33.9567 24.1283L33.5064 24.3455L33.5064 24.3456L33.9567 24.1283ZM41.5151 25.6097L41.1726 25.2454L41.1725 25.2455L41.5151 25.6097ZM41.6682 25.4813L41.9805 25.8719L41.9864 25.867L41.6682 25.4813ZM41.6683 25.4813L41.356 25.0907L41.3501 25.0956L41.6683 25.4813ZM41.8035 25.372H42.3035C42.3035 25.1787 42.1921 25.0027 42.0173 24.92C41.8425 24.8374 41.6358 24.8629 41.4863 24.9855L41.8035 25.372ZM41.8035 26.4689H41.3035C41.3035 26.7451 41.5274 26.9689 41.8035 26.9689V26.4689ZM43.0191 26.4689V26.9689C43.2953 26.9689 43.5191 26.7451 43.5191 26.4689H43.0191ZM43.0191 10.3789H43.5191C43.5191 10.1028 43.2953 9.87891 43.0191 9.87891V10.3789ZM41.6247 20.8258L41.2707 21.1789C41.4136 21.3222 41.6288 21.3651 41.8158 21.2878C42.0027 21.2105 42.1247 21.0281 42.1247 20.8258H41.6247ZM41.6261 20.1868L42.1261 20.1885L42.1261 20.1885L41.6261 20.1868ZM41.6243 20.8254L41.9782 20.4722C41.8353 20.3289 41.62 20.286 41.433 20.3634C41.246 20.4408 41.1241 20.6233 41.1243 20.8257L41.6243 20.8254ZM41.6231 21.447L41.1231 21.4454V21.447H41.6231ZM41.6231 21.4474L42.1231 21.4493V21.4474H41.6231ZM41.6231 21.4505L41.1231 21.4486L41.1231 21.4489L41.6231 21.4505ZM41.6268 22.7999L41.1268 22.8072L41.1268 22.8073L41.6268 22.7999ZM40.8297 24.6222L41.1702 24.9884L41.1703 24.9883L40.8297 24.6222ZM37.8466 25.4591L37.783 25.9551L37.7831 25.9551L37.8466 25.4591ZM35.1119 23.2922L34.6491 23.4816L34.6492 23.4816L35.1119 23.2922ZM34.665 20.2843L35.1647 20.3007L35.1647 20.3005L34.665 20.2843ZM35.0514 18.146L35.5184 18.3248L35.5184 18.3246L35.0514 18.146ZM37.5548 15.8571L37.4504 15.3681L37.4503 15.3681L37.5548 15.8571ZM39.2494 15.8411L39.1451 16.3301L39.1452 16.3301L39.2494 15.8411ZM41.623 18.767L41.1231 18.7737L41.1231 18.7737L41.623 18.767ZM4.91692 10.8522L5.38122 10.6667C5.30532 10.4768 5.12143 10.3522 4.91692 10.3522V10.8522ZM2.61328 10.8522V10.3522C2.33714 10.3522 2.11328 10.5761 2.11328 10.8522H2.61328ZM6.73628 15.405L7.20058 15.2194L7.20057 15.2194L6.73628 15.405ZM6.74064 15.4159L6.27634 15.6014L6.27634 15.6014L6.74064 15.4159ZM9.90229 23.3271L9.438 23.5127C9.51307 23.7005 9.69389 23.8246 9.89614 23.8271C10.0984 23.8296 10.2822 23.71 10.3619 23.5241L9.90229 23.3271ZM9.99526 23.1124L10.4536 23.3122L10.4538 23.3117L9.99526 23.1124ZM9.99539 23.1121L9.53725 22.9119L9.53682 22.9128L9.99539 23.1121ZM9.99546 23.112L10.4536 23.3122L10.4538 23.3117L9.99546 23.112ZM10.1245 22.8079L9.66048 22.6216L9.66011 22.6226L10.1245 22.8079ZM12.4446 17.0275L11.9806 16.8413L11.9806 16.8413L12.4446 17.0275ZM14.7684 11.2381L14.3045 11.0517L14.3044 11.0518L14.7684 11.2381ZM14.8281 11.0827L14.3624 10.9005L14.3595 10.9082L14.8281 11.0827ZM14.8281 11.0826L15.2938 11.2648L15.2966 11.2571L14.8281 11.0826ZM14.9439 10.8617L15.252 11.2555L15.252 11.2555L14.9439 10.8617ZM15.3202 10.8141L15.321 11.3141L15.3214 11.3141L15.3202 10.8141ZM15.3954 10.8139L15.3966 11.3139L15.3974 11.3139L15.3954 10.8139ZM16.6873 10.8148L16.6839 11.3148L16.6842 11.3148L16.6873 10.8148ZM16.9713 10.8284L16.9372 11.3273L16.9372 11.3273L16.9713 10.8284ZM17.1121 10.8375H17.6121C17.6121 10.5724 17.4052 10.3534 17.1405 10.3383L17.1121 10.8375ZM17.1121 26.3183V26.8183C17.3882 26.8183 17.6121 26.5944 17.6121 26.3183H17.1121ZM15.7239 26.3183H15.2239C15.2239 26.5944 15.4478 26.8183 15.7239 26.8183V26.3183ZM15.7239 12.7401H16.2239C16.2239 12.5249 16.0862 12.3339 15.882 12.2658L15.7239 12.7401ZM15.6343 12.7103L15.7924 12.2359C15.5513 12.1556 15.2883 12.2688 15.181 12.4992L15.6343 12.7103ZM15.5797 12.8252L15.1289 12.6089C15.1241 12.619 15.1196 12.6292 15.1155 12.6395L15.5797 12.8252ZM15.5797 12.8252L16.0349 13.0321C16.038 13.0251 16.0411 13.0181 16.0439 13.0109L15.5797 12.8252ZM15.5797 12.8253L16.0306 13.0415L16.0348 13.0322L15.5797 12.8253ZM15.4592 13.0898L14.9962 12.9009L14.9961 12.9014L15.4592 13.0898ZM11.7474 22.2174L11.2842 22.0291L11.2841 22.0295L11.7474 22.2174ZM11.7468 22.2188L12.21 22.4072L12.2101 22.4068L11.7468 22.2188ZM10.2729 25.8441L9.80971 25.6557L9.80951 25.6563L10.2729 25.8441ZM10.232 25.9486L9.76522 25.7694C9.76255 25.7764 9.76004 25.7834 9.75768 25.7905L10.232 25.9486ZM10.232 25.9486L10.6988 26.1278C10.7015 26.1208 10.704 26.1138 10.7064 26.1067L10.232 25.9486ZM10.1086 26.2299L10.5452 26.4736L10.5454 26.4733L10.1086 26.2299ZM9.71095 26.2333L9.27738 26.4823L9.27761 26.4827L9.71095 26.2333ZM9.60157 25.9853L9.12723 26.1434C9.12943 26.15 9.13176 26.1566 9.13422 26.163L9.60157 25.9853ZM9.60157 25.9853L10.0759 25.8272C10.0737 25.8206 10.0714 25.8141 10.0689 25.8076L9.60157 25.9853ZM9.56296 25.8861L9.09982 26.0746L9.09997 26.0749L9.56296 25.8861ZM6.96881 19.5098L7.43195 19.3213L7.43195 19.3213L6.96881 19.5098ZM4.37457 13.1331L3.91118 13.3209L3.91143 13.3215L4.37457 13.1331ZM4.12986 12.7309L4.47921 12.3732C4.3353 12.2326 4.12118 12.192 3.93579 12.2701C3.75041 12.3482 3.62986 12.5297 3.62986 12.7309H4.12986ZM4.12986 26.3347L4.15362 26.8341C4.42022 26.8214 4.62986 26.6016 4.62986 26.3347H4.12986ZM2.61328 26.3359H2.11328C2.11328 26.6041 2.32486 26.8245 2.59282 26.8355L2.61328 26.3359ZM158.878 14.9389L159.33 15.1522L159.332 15.149L158.878 14.9389ZM158.879 14.937L158.427 14.722L158.425 14.7269L158.879 14.937ZM158.757 15.2111L159.223 15.3938L159.223 15.3931L158.757 15.2111ZM153.207 29.3494L152.742 29.1667L152.742 29.1668L153.207 29.3494ZM153.146 29.5045L153.612 29.6872L153.612 29.6872L153.146 29.5045ZM152.487 31.1854L152.952 31.3687L152.952 31.368L152.487 31.1854ZM152.449 31.2724L151.993 31.066L151.993 31.0669L152.449 31.2724ZM152.436 31.3006V31.8006C152.633 31.8006 152.811 31.6854 152.892 31.5062L152.436 31.3006ZM151.102 31.3006L150.619 31.1731C150.579 31.323 150.611 31.4829 150.706 31.6058C150.801 31.7287 150.947 31.8006 151.102 31.8006V31.3006ZM151.139 31.1502L150.652 31.0368L150.652 31.0368L151.139 31.1502ZM151.231 30.8235L151.697 31.0057L151.697 31.0049L151.231 30.8235ZM151.472 30.2058L151.938 30.3872L151.938 30.3872L151.472 30.2058ZM153.226 25.745L152.763 25.5584L152.763 25.5586L153.226 25.745ZM153.234 24.8278L152.769 25.0122L152.769 25.0125L153.234 24.8278ZM150.096 16.8565L150.561 16.674L150.561 16.6739L150.096 16.8565ZM149.393 15.0634L148.927 15.2456L148.927 15.246L149.393 15.0634ZM149.288 14.7672L148.814 14.9255L148.814 14.9255L149.288 14.7672ZM149.232 14.6018V14.1018C149.071 14.1018 148.919 14.1799 148.825 14.3114C148.732 14.443 148.707 14.6117 148.76 14.7645L149.232 14.6018ZM150.717 14.6018L151.186 14.4266C151.113 14.2313 150.926 14.1018 150.717 14.1018V14.6018ZM152.138 18.3995L152.607 18.2243L152.607 18.2243L152.138 18.3995ZM154.056 23.5256L153.588 23.7008C153.661 23.8961 153.847 24.0256 154.056 24.0256V23.5256ZM154.149 23.5256V24.0256C154.357 24.0256 154.544 23.8961 154.617 23.7008L154.149 23.5256ZM155.636 19.5509L156.104 19.7261L156.104 19.7261L155.636 19.5509ZM157.491 14.593L157.478 14.0931C157.274 14.0984 157.094 14.2269 157.022 14.4177L157.491 14.593ZM158.308 14.5714L158.295 14.0716L158.295 14.0716L158.308 14.5714ZM158.94 14.5547H159.44C159.44 14.4198 159.385 14.2906 159.289 14.1965C159.192 14.1024 159.061 14.0513 158.926 14.0549L158.94 14.5547ZM158.94 14.8071V15.3071C159.216 15.3071 159.44 15.0833 159.44 14.8071H158.94ZM158.939 14.8071V14.3071C158.743 14.3071 158.565 14.4222 158.484 14.6012L158.939 14.8071ZM158.88 14.9355L159.331 15.1505L159.332 15.1488L158.88 14.9355ZM56.5669 23.6828L57.0126 23.9093C57.1347 23.6689 57.0443 23.375 56.8082 23.2449L56.5669 23.6828ZM55.3659 23.021H54.8659C54.8659 23.2032 54.965 23.371 55.1245 23.4589L55.3659 23.021ZM56.4665 23.8884L56.9175 24.1042L56.9175 24.1042L56.4665 23.8884ZM56.258 24.2854L56.6813 24.5513L56.6814 24.5513L56.258 24.2854ZM51.1654 26.7956L51.1184 27.2933L51.1184 27.2933L51.1654 26.7956ZM46.7283 23.2011L46.2567 23.3674L46.2568 23.3674L46.7283 23.2011ZM46.7462 17.8798L46.2743 17.7144L46.2743 17.7144L46.7462 17.8798ZM50.2871 14.5113L50.3986 14.9987L50.3986 14.9987L50.2871 14.5113ZM56.5435 18.2938L56.0596 18.4198L56.0596 18.4198L56.5435 18.2938ZM56.7916 21.0098V21.5098C57.0564 21.5098 57.2752 21.3033 57.2907 21.039L56.7916 21.0098ZM47.7575 21.0098V20.5098C47.6187 20.5098 47.4861 20.5675 47.3915 20.6691C47.2969 20.7707 47.2489 20.9071 47.2588 21.0456L47.7575 21.0098ZM47.7718 21.3181H48.2718C48.2718 21.3126 48.2717 21.3071 48.2716 21.3017L47.7718 21.3181ZM47.7718 21.3183H47.2718C47.2718 21.3238 47.2719 21.3293 47.2721 21.3347L47.7718 21.3183ZM47.8284 21.8896L48.3141 21.771L48.314 21.7706L47.8284 21.8896ZM47.8528 21.9897L47.3671 22.1083L47.3678 22.1109L47.8528 21.9897ZM47.8528 21.9897L48.3386 21.8713L48.3379 21.8684L47.8528 21.9897ZM48.2719 23.3269L48.7253 23.1159L48.7252 23.1158L48.2719 23.3269ZM52.1793 25.4618L52.1335 24.9639L52.1335 24.9639L52.1793 25.4618ZM52.9138 25.3175L52.7927 24.8323L52.7923 24.8325L52.9138 25.3175ZM55.1295 23.4851L54.6873 23.2517L54.6869 23.2524L55.1295 23.4851ZM55.2804 23.1897L55.727 23.4146L55.7275 23.4137L55.2804 23.1897ZM55.2811 23.1883L54.8346 22.9633L54.8341 22.9644L55.2811 23.1883ZM55.3141 23.1229L54.8679 22.8973L54.8676 22.8979L55.3141 23.1229ZM55.3659 23.0206H55.8659C55.8659 22.7891 55.707 22.5879 55.4818 22.5342C55.2567 22.4805 55.0241 22.5884 54.9196 22.795L55.3659 23.0206ZM55.1357 18.3401L55.6153 18.1988L55.6153 18.1987L55.1357 18.3401ZM55.2775 19.7551H54.7775C54.7775 20.0162 54.9784 20.2334 55.2387 20.2536C55.499 20.2738 55.7311 20.0904 55.7715 19.8324L55.2775 19.7551ZM52.8304 15.8539L52.9633 15.3719L52.9632 15.3718L52.8304 15.8539ZM51.7637 15.6902L51.7796 15.1905L51.7793 15.1905L51.7637 15.6902ZM48.7022 17.0732L48.2998 16.7764L48.2998 16.7764L48.7022 17.0732ZM47.8838 19.0306L47.3907 18.9479L47.3907 18.9481L47.8838 19.0306ZM47.8233 19.5044L47.3262 19.4504C47.3243 19.4683 47.3233 19.4864 47.3233 19.5044H47.8233ZM47.8233 19.5045L48.3197 19.5646C48.3221 19.5447 48.3233 19.5246 48.3233 19.5045H47.8233ZM47.8233 19.5047L47.3269 19.4445L47.3262 19.4509L47.8233 19.5047ZM47.8233 19.5048L48.3136 19.6028C48.3165 19.5882 48.3188 19.5734 48.3204 19.5585L47.8233 19.5048ZM47.8233 19.5048L47.333 19.4068C47.3319 19.412 47.3309 19.4173 47.3301 19.4226L47.8233 19.5048ZM47.8232 19.5049L47.3301 19.4227C47.3285 19.4321 47.3272 19.4414 47.3262 19.4509L47.8232 19.5049ZM47.795 19.7547L47.2987 19.6946C47.2815 19.8366 47.3259 19.9792 47.4208 20.0863C47.5157 20.1934 47.652 20.2547 47.795 20.2547V19.7547ZM55.2775 19.7547H55.7775C55.7775 19.4785 55.5536 19.2547 55.2775 19.2547V19.7547ZM107.415 21.022L107.769 20.6684C107.675 20.5746 107.548 20.522 107.415 20.522V21.022ZM98.4323 21.022V20.522C98.1876 20.522 97.9789 20.699 97.939 20.9404L98.4323 21.022ZM107.416 21.0224L107.062 21.3759C107.202 21.5156 107.411 21.5599 107.595 21.4892C107.779 21.4184 107.905 21.2457 107.915 21.0485L107.416 21.0224ZM107.24 18.5664L106.752 18.6742L106.752 18.6742L107.24 18.5664ZM100.699 14.5748L100.565 14.093L100.565 14.093L100.699 14.5748ZM97.3384 17.9808L97.8112 18.1436L97.8112 18.1435L97.3384 17.9808ZM97.0937 22.2586L97.5853 22.1673L97.5853 22.1673L97.0937 22.2586ZM101.781 26.8031L101.823 26.3048L101.823 26.3048L101.781 26.8031ZM106.884 24.2971L106.462 24.0289L106.461 24.0297L106.884 24.2971ZM107.095 23.8939L107.547 24.1083L107.547 24.1083L107.095 23.8939ZM107.197 23.6853L107.643 23.9106C107.764 23.6707 107.674 23.378 107.439 23.2479L107.197 23.6853ZM106.092 23.0741L105.85 23.5117L105.85 23.5117L106.092 23.0741ZM106.056 23.0541L105.814 23.4916L105.814 23.4917L106.056 23.0541ZM106.054 23.0534L106.297 22.616L106.296 22.6159L106.054 23.0534ZM106.029 23.0393L106.271 22.6017L106.271 22.6017L106.029 23.0393ZM106.01 23.0289L106.252 22.5913L106.252 22.5913L106.01 23.0289ZM106.001 23.0239L106.243 22.5863C106.125 22.5212 105.986 22.5063 105.857 22.545C105.728 22.5837 105.621 22.6726 105.558 22.7917L106.001 23.0239ZM105.976 23.071L106.418 23.3046L106.419 23.3032L105.976 23.071ZM105.919 23.1802L105.477 22.9466L105.475 22.9504L105.919 23.1802ZM105.918 23.1807L106.36 23.4149L106.362 23.4106L105.918 23.1807ZM105.802 23.4051L105.354 23.1825L105.354 23.1834L105.802 23.4051ZM103.347 25.3629L103.439 25.8543L103.44 25.8542L103.347 25.3629ZM101.859 25.4668L101.827 25.9658L101.827 25.9658L101.859 25.4668ZM99.1122 23.7425L98.6814 23.9963L98.6814 23.9964L99.1122 23.7425ZM98.5153 22.2257L99.0051 22.1253L99.0051 22.1252L98.5153 22.2257ZM105.959 19.7626L105.602 20.1125C105.745 20.258 105.961 20.3025 106.149 20.2251C106.338 20.1477 106.46 19.9638 106.459 19.7602L105.959 19.7626ZM105.392 17.4195L105.836 17.1896L105.836 17.1895L105.392 17.4195ZM105.959 19.7622L106.316 19.4123C106.222 19.3163 106.093 19.2622 105.959 19.2622V19.7622ZM98.4219 19.7622L97.9255 19.7019C97.9083 19.844 97.9527 19.9866 98.0476 20.0938C98.1425 20.2009 98.2788 20.2622 98.4219 20.2622V19.7622ZM98.4471 19.4992L98.9454 19.5402C98.9465 19.5266 98.9471 19.5129 98.9471 19.4992H98.4471ZM98.4471 19.499L97.9527 19.4244C97.9489 19.4491 97.9471 19.474 97.9471 19.499H98.4471ZM98.4471 19.4989L98.9415 19.5735L98.9425 19.5661L98.4471 19.4989ZM98.4471 19.4987L98.9426 19.5659C98.9437 19.5572 98.9447 19.5485 98.9454 19.5398L98.4471 19.4987ZM98.5253 18.9695L98.045 18.8306L98.0449 18.8308L98.5253 18.9695ZM98.9842 17.6707L98.5336 17.4541L98.5335 17.4542L98.9842 17.6707ZM102.368 15.6906L102.361 16.1906L102.361 16.1906L102.368 15.6906ZM103.354 15.8265L103.476 15.3417L103.476 15.3417L103.354 15.8265ZM30.1255 23.7228L29.6659 23.526L29.6659 23.526L30.1255 23.7228ZM30.675 20.5769L31.1749 20.585C31.1771 20.4502 31.1248 20.3202 31.0297 20.2245L30.675 20.5769ZM26.7497 26.6946L26.6401 26.2068L26.6401 26.2068L26.7497 26.6946ZM20.9514 23.674L20.4899 23.8663L20.4899 23.8664L20.9514 23.674ZM20.4141 20.2975L19.9142 20.2853L19.9142 20.2854L20.4141 20.2975ZM20.8756 17.7477L21.3398 17.9334L21.3398 17.9334L20.8756 17.7477ZM24.4644 14.481L24.5763 14.9683L24.5763 14.9683L24.4644 14.481ZM30.1272 17.5163L29.6654 17.708L29.6655 17.7081L30.1272 17.5163ZM30.6746 20.5764L30.1746 20.5818C30.176 20.712 30.2281 20.8364 30.3198 20.9288L30.6746 20.5764ZM21.8415 21.072H21.3415C21.3415 21.0864 21.3421 21.1008 21.3434 21.1152L21.8415 21.072ZM21.8415 21.072H22.3415C22.3415 21.0445 22.3392 21.017 22.3347 20.9898L21.8415 21.072ZM21.969 22.1336L22.4611 22.0452L22.4611 22.0451L21.969 22.1336ZM23.2822 24.6043L23.619 24.2348L23.619 24.2348L23.2822 24.6043ZM28.0316 24.3956L28.3998 24.7338L28.3999 24.7338L28.0316 24.3956ZM29.0354 22.4867L28.551 22.3628L28.5509 22.3631L29.0354 22.4867ZM29.1792 19.4008L28.6834 19.465L28.6834 19.465L29.1792 19.4008ZM28.3693 17.1759L28.7794 16.8899L28.7793 16.8898L28.3693 17.1759ZM24.6774 15.8017L24.5501 15.3182L24.55 15.3182L24.6774 15.8017ZM22.2096 18.1571L21.7438 17.9753L21.7438 17.9753L22.2096 18.1571ZM21.816 20.7944L21.3682 21.0168C21.4705 21.2227 21.7 21.3324 21.9245 21.2825C22.149 21.2326 22.3105 21.036 22.3159 20.8062L21.816 20.7944ZM21.8156 20.7935L22.2634 20.5712C22.1556 20.3541 21.9076 20.2456 21.675 20.3137C21.4424 20.3819 21.2922 20.6071 21.3186 20.848L21.8156 20.7935ZM21.8415 21.072L21.3433 21.1151C21.3445 21.1282 21.3461 21.1412 21.3483 21.1542L21.8415 21.072ZM68.9643 26.3345V26.8345C69.2404 26.8345 69.4643 26.6106 69.4643 26.3345H68.9643ZM67.6186 26.3345L67.1392 26.4766C67.2022 26.6889 67.3972 26.8345 67.6186 26.8345V26.3345ZM68.9643 25.8342L69.4643 25.8342L69.4643 25.8342L68.9643 25.8342ZM68.9642 24.1311L69.4642 24.1311L69.4642 24.1311L68.9642 24.1311ZM68.9647 19.0218L69.4647 19.022L69.4647 19.021L68.9647 19.0218ZM68.9645 18.9313L68.4645 18.9313L68.4645 18.9322L68.9645 18.9313ZM68.9645 18.9311L69.4645 18.9311L69.4645 18.9298L68.9645 18.9311ZM68.9764 18.4336L68.4778 18.3953L68.4778 18.3953L68.9764 18.4336ZM70.4137 16.1153L70.164 15.6821L70.1639 15.6821L70.4137 16.1153ZM72.13 15.6646L72.1475 16.1643L72.1476 16.1643L72.13 15.6646ZM75.1469 18.2485L74.6509 18.3117L74.6509 18.3119L75.1469 18.2485ZM75.2211 19.4215L74.7211 19.4231L74.7211 19.4232L75.2211 19.4215ZM75.2249 24.2014L74.7249 24.2011L74.7249 24.2011L75.2249 24.2014ZM75.2244 26.3248H74.7244C74.7244 26.5864 74.926 26.8037 75.1868 26.8234L75.2244 26.3248ZM76.6422 26.337L76.6582 26.8368C76.928 26.8282 77.1422 26.607 77.1422 26.337H76.6422ZM76.6422 25.9508L76.1422 25.9507V25.9508H76.6422ZM76.6424 24.4348L76.1424 24.4347L76.1424 24.4347L76.6424 24.4348ZM76.6385 18.676L76.1385 18.6767L76.1385 18.6772L76.6385 18.676ZM76.5672 17.7974L77.0613 17.7206L77.0612 17.7203L76.5672 17.7974ZM74.1056 14.6696L74.2736 14.1987L74.2736 14.1986L74.1056 14.6696ZM69.1173 15.6474L68.7742 15.2837L68.7738 15.284L69.1173 15.6474ZM69.0457 15.693L69.2852 16.1319L69.2852 16.1319L69.0457 15.693ZM68.9639 15.7391H68.4639C68.4639 15.9185 68.5599 16.0841 68.7156 16.1731C68.8713 16.2622 69.0627 16.261 69.2173 16.1701L68.9639 15.7391ZM68.9639 14.7306H69.4639C69.4639 14.4895 69.2918 14.2827 69.0547 14.2389L68.9639 14.7306ZM67.574 14.7487L67.4187 14.2734C67.2303 14.3349 67.0961 14.502 67.0765 14.6992L67.574 14.7487ZM95.2787 10.8398H95.7787C95.7787 10.5637 95.5549 10.3398 95.2787 10.3398V10.8398ZM86.2426 10.8398V10.3398C85.9665 10.3398 85.7426 10.5637 85.7426 10.8398H86.2426ZM95.2787 12.129V12.629C95.5549 12.629 95.7787 12.4052 95.7787 12.129H95.2787ZM87.6716 12.129V11.629C87.3955 11.629 87.1716 11.8529 87.1716 12.129H87.6716ZM87.6716 18.2459H87.1716C87.1716 18.5221 87.3955 18.7459 87.6716 18.7459V18.2459ZM94.653 18.2459H95.153C95.153 17.9698 94.9291 17.7459 94.653 17.7459V18.2459ZM94.653 19.5233V20.0233C94.9291 20.0233 95.153 19.7995 95.153 19.5233H94.653ZM87.6591 19.5233V19.0233C87.383 19.0233 87.1591 19.2472 87.1591 19.5233H87.6591ZM87.6591 26.3286L87.696 26.8272C87.9571 26.8079 88.1591 26.5904 88.1591 26.3286H87.6591ZM86.4964 26.3443L86.5056 25.8444L86.5053 25.8443L86.4964 26.3443ZM86.4959 26.3443L86.4867 26.8442L86.487 26.8442L86.4959 26.3443ZM86.2426 26.34H85.7426C85.7426 26.6134 85.9622 26.8361 86.2356 26.8399L86.2426 26.34ZM143.106 15.9612H143.606C143.606 15.685 143.383 15.4612 143.106 15.4612V15.9612ZM141.539 15.9612H141.039C141.039 16.2373 141.263 16.4612 141.539 16.4612V15.9612ZM143.106 18.0675L142.606 18.0673L142.606 18.0673L143.106 18.0675ZM143.11 23.0088L142.61 23.0104L142.61 23.0104L143.11 23.0088ZM143.19 24.1394L143.684 24.0609L143.684 24.0608L143.19 24.1394ZM144.833 26.2137L144.982 25.7363L144.982 25.7362L144.833 26.2137ZM146.323 26.3457L146.333 26.8456L146.333 26.8456L146.323 26.3457ZM146.706 26.3407V26.8407C146.982 26.8407 147.206 26.6169 147.206 26.3407H146.706ZM146.706 24.9539H147.206C147.206 24.6869 146.996 24.4669 146.729 24.4545L146.706 24.9539ZM146.546 24.9462L146.521 25.4456L146.521 25.4456L146.546 24.9462ZM146.273 24.9337L146.254 25.4334L146.254 25.4334L146.273 24.9337ZM146.039 24.9278L146.049 24.4279L146.049 24.4279L146.039 24.9278ZM145.566 24.9068L145.613 24.4091L145.613 24.409L145.566 24.9068ZM144.651 24.1259L145.14 24.0204L145.14 24.0203L144.651 24.1259ZM144.526 23.1291L144.026 23.1315L144.026 23.1316L144.526 23.1291ZM144.52 17.4254L145.02 17.4258L145.02 17.4258L144.52 17.4254ZM144.521 16.3138L145.021 16.3141V16.3138H144.521ZM144.539 16.0874L144.047 16.0027C144.045 16.0109 144.044 16.0191 144.043 16.0273L144.539 16.0874ZM144.539 16.0872L145.032 16.172C145.034 16.1638 145.035 16.1555 145.036 16.1473L144.539 16.0872ZM144.555 15.9477V15.4477C144.298 15.4477 144.083 15.6426 144.058 15.8984L144.555 15.9477ZM147.312 15.9477V16.4477C147.588 16.4477 147.812 16.2239 147.812 15.9477H147.312ZM147.312 14.6173H147.812C147.812 14.3412 147.588 14.1173 147.312 14.1173V14.6173ZM144.502 14.6173H144.002C144.002 14.8934 144.226 15.1173 144.502 15.1173V14.6173ZM144.502 11.7642H145.002C145.002 11.4891 144.78 11.2656 144.504 11.2642L144.502 11.7642ZM144.179 11.761L144.173 12.261L144.173 12.261L144.179 11.761ZM143.143 11.7755L143.111 11.2766C142.848 11.2934 142.643 11.5118 142.643 11.7755H143.143ZM143.143 14.6392V15.1392C143.419 15.1392 143.643 14.9153 143.643 14.6392H143.143ZM141.539 14.6392V14.1392C141.263 14.1392 141.039 14.363 141.039 14.6392H141.539ZM120.002 11.7773H120.502C120.502 11.5012 120.278 11.2773 120.002 11.2773V11.7773ZM118.648 11.7773V11.2773C118.372 11.2773 118.148 11.5012 118.148 11.7773H118.648ZM120.002 14.6225H119.502C119.502 14.8986 119.726 15.1225 120.002 15.1225V14.6225ZM122.808 14.6225H123.308C123.308 14.3463 123.084 14.1225 122.808 14.1225V14.6225ZM122.808 15.9516V16.4516C123.084 16.4516 123.308 16.2278 123.308 15.9516H122.808ZM120.041 15.9516V15.4516C119.778 15.4516 119.56 15.6553 119.542 15.9177L120.041 15.9516ZM120.029 16.1018L119.531 16.0604L119.531 16.0662L120.029 16.1018ZM120.029 16.1028L120.528 16.1384L120.528 16.1383L120.029 16.1028ZM120.029 16.1034L120.527 16.1447L120.528 16.1391L120.029 16.1034ZM120.015 16.3598L120.515 16.3601V16.3598H120.015ZM120.014 17.5477L120.514 17.5481L120.514 17.5481L120.014 17.5477ZM120.02 23.0451L120.52 23.0427L120.52 23.0427L120.02 23.0451ZM120.14 24.0844L119.653 24.1961L119.653 24.1964L120.14 24.0844ZM121.103 24.912L121.151 24.4142L121.15 24.4142L121.103 24.912ZM121.594 24.9315L121.588 25.4315L121.588 25.4315L121.594 24.9315ZM121.769 24.9343L121.757 25.4342L121.758 25.4342L121.769 24.9343ZM122.051 24.9352L122.054 25.4352L122.054 25.4352L122.051 24.9352ZM122.207 24.9347H122.707C122.707 24.6586 122.483 24.4347 122.207 24.4347V24.9347ZM122.207 26.3299L122.225 26.8296C122.494 26.8197 122.707 26.5989 122.707 26.3299H122.207ZM122.02 26.3372L122.04 26.8368L122.04 26.8368L122.02 26.3372ZM120.151 26.1511L120.334 25.6856L120.334 25.6855L120.151 26.1511ZM118.678 24.0755L119.173 24.0025L119.173 24.0024L118.678 24.0755ZM118.606 22.9445L119.106 22.9434L119.106 22.943L118.606 22.9445ZM118.602 18.0902L118.102 18.09L118.102 18.0901L118.602 18.0902ZM118.602 18.0344L119.102 18.0346L119.102 18.0346L118.602 18.0344ZM118.602 15.9647H119.102C119.102 15.6885 118.878 15.4647 118.602 15.4647V15.9647ZM117.027 15.9647H116.527C116.527 16.2408 116.751 16.4647 117.027 16.4647V15.9647ZM117.027 14.6477L117.019 14.1478C116.746 14.1526 116.527 14.375 116.527 14.6477H117.027ZM118.648 14.6195L118.657 15.1195C118.929 15.1148 119.148 14.8923 119.148 14.6195H118.648ZM115.465 15.4932L115.956 15.5909L115.956 15.5909L115.465 15.4932ZM115.612 14.759L115.258 14.4061C115.188 14.4759 115.141 14.5647 115.121 14.6613L115.612 14.759ZM115.332 16.1647L115.31 16.6643C115.556 16.675 115.774 16.5044 115.822 16.2625L115.332 16.1647ZM114.925 16.1378L114.964 15.6394L114.964 15.6394L114.925 16.1378ZM114.102 16.1214L114.152 16.6189L114.153 16.6189L114.102 16.1214ZM112.355 17.586L111.877 17.4372L111.877 17.4372L112.355 17.586ZM112.168 18.9085L111.668 18.9047L111.668 18.9048L112.168 18.9085ZM112.158 24.2394L111.658 24.2399L111.658 24.2399L112.158 24.2394ZM112.159 26.5721L112.191 27.071C112.454 27.054 112.659 26.8357 112.659 26.5721H112.159ZM111.259 26.5869L111.263 26.0869H111.259V26.5869ZM111.259 26.5869L111.254 27.0869H111.259V26.5869ZM110.789 26.5864L110.315 26.7443C110.384 26.9511 110.579 27.0894 110.796 27.0863L110.789 26.5864ZM110.761 14.8036V14.3036C110.524 14.3036 110.32 14.469 110.271 14.7002L110.761 14.8036ZM112.086 14.8036H112.586C112.586 14.5275 112.362 14.3036 112.086 14.3036V14.8036ZM112.086 15.9157H111.586C111.586 16.0719 111.659 16.2192 111.784 16.3137L112.086 15.9157ZM112.152 15.9657L111.85 16.3638C111.957 16.4456 112.093 16.4803 112.227 16.4601C112.361 16.4399 112.48 16.3664 112.559 16.2564L112.152 15.9657ZM115.612 14.7586L115.966 15.1115C116.091 14.9867 116.14 14.8055 116.097 14.6346C116.053 14.4638 115.922 14.3287 115.753 14.2789L115.612 14.7586ZM64.974 14.7783H65.474C65.474 14.5206 65.2782 14.3052 65.0217 14.2806C64.7652 14.256 64.532 14.4304 64.4831 14.6833L64.974 14.7783ZM64.974 14.7787L64.8088 15.2507C64.9617 15.3042 65.1311 15.2803 65.2633 15.1865C65.3954 15.0928 65.474 14.9408 65.474 14.7787H64.974ZM63.6675 14.6016L63.7336 15.0972L63.7337 15.0972L63.6675 14.6016ZM64.8177 15.5774L64.327 15.4814L64.327 15.4814L64.8177 15.5774ZM64.693 16.2148L64.6001 16.7061C64.8703 16.7571 65.1309 16.5805 65.1837 16.3107L64.693 16.2148ZM64.5789 16.1936L64.669 15.7018L64.6668 15.7014L64.5789 16.1936ZM64.5788 16.1936L64.4887 16.6854L64.4909 16.6858L64.5788 16.1936ZM64.4124 16.1622L64.3138 16.6523L64.314 16.6524L64.4124 16.1622ZM62.7466 16.3351L62.5119 15.8936L62.5119 15.8936L62.7466 16.3351ZM61.5644 18.2504L62.0608 18.3101L62.0608 18.31L61.5644 18.2504ZM61.5248 19.2164L62.0248 19.2171L62.0248 19.2171L61.5248 19.2164ZM61.5229 24.3257L62.0229 24.3256L62.0229 24.3256L61.5229 24.3257ZM61.5231 26.0313L62.0231 26.0313L62.0231 26.0313L61.5231 26.0313ZM61.5231 26.5607V27.0607C61.7993 27.0607 62.0231 26.8368 62.0231 26.5607H61.5231ZM60.1328 26.5607L59.6515 26.6959C59.7121 26.9116 59.9088 27.0607 60.1328 27.0607V26.5607ZM60.1045 14.8263L60.0197 14.3335C59.802 14.371 59.6347 14.5468 59.6081 14.7661L60.1045 14.8263ZM60.9832 14.79L60.994 14.2901L60.994 14.2901L60.9832 14.79ZM61.4606 14.793H61.9606C61.9606 14.6585 61.9063 14.5296 61.8101 14.4355C61.7139 14.3415 61.5839 14.2901 61.4494 14.2932L61.4606 14.793ZM61.4606 15.9568H60.9606C60.9606 16.1565 61.0794 16.3371 61.2628 16.4161C61.4462 16.4951 61.6591 16.4573 61.8041 16.3201L61.4606 15.9568ZM61.7744 15.6512L61.4228 15.2957L61.4228 15.2957L61.7744 15.6512ZM62.4277 15.0552L62.7325 15.4515L62.7326 15.4515L62.4277 15.0552ZM127.481 14.6016L127.96 14.4584C127.896 14.2467 127.702 14.1016 127.481 14.1016V14.6016ZM126.102 14.6016V14.1016C125.851 14.1016 125.639 14.2871 125.606 14.5355L126.102 14.6016ZM127.513 26.3275L127.558 26.8256C127.792 26.8048 127.979 26.6242 128.009 26.3913L127.513 26.3275ZM126.512 26.3458L126.496 26.8456L126.504 26.8457L126.512 26.3458ZM126.512 26.3458L126.527 25.846L126.52 25.8459L126.512 26.3458ZM126.137 26.3414L125.657 26.4815C125.719 26.6945 125.914 26.841 126.136 26.8414L126.137 26.3414ZM138.725 26.3248V26.8248C139.002 26.8248 139.225 26.601 139.225 26.3248H138.725ZM137.279 26.3248H136.779C136.779 26.601 137.003 26.8248 137.279 26.8248V26.3248ZM138.725 14.6094H139.225C139.225 14.3332 139.002 14.1094 138.725 14.1094V14.6094ZM137.279 14.6094V14.1094C137.003 14.1094 136.779 14.3332 136.779 14.6094H137.279ZM127.716 10.8398H128.216C128.216 10.5637 127.993 10.3398 127.716 10.3398V10.8398ZM125.891 10.8398V10.3398C125.614 10.3398 125.391 10.5637 125.391 10.8398H125.891ZM127.716 12.5691L127.875 13.0433C128.079 12.9752 128.216 12.7842 128.216 12.5691H127.716ZM125.891 12.5956H125.391C125.391 12.8354 125.561 13.0414 125.796 13.0866L125.891 12.5956ZM138.913 10.8438H139.413C139.413 10.5676 139.19 10.3438 138.913 10.3438V10.8438ZM138.913 12.6159V13.1159C139.19 13.1159 139.413 12.8921 139.413 12.6159H138.913ZM137.105 10.8438V10.3438C136.829 10.3438 136.605 10.5676 136.605 10.8438H137.105ZM137.105 12.6159H136.605C136.605 12.8921 136.829 13.1159 137.105 13.1159V12.6159ZM131.745 10.8637H133.073V9.8637H131.745V10.8637ZM131.387 10.7131L131.388 10.7135L132.102 10.0139L132.102 10.0135L131.387 10.7131ZM132.253 26.4377C132.261 26.4647 132.265 26.4851 132.266 26.4894C132.266 26.4932 132.267 26.4959 132.267 26.4974C132.267 26.4976 132.267 26.4992 132.267 26.4991C132.267 26.499 132.267 26.5 132.267 26.4997C132.267 26.4993 132.267 26.4998 132.267 26.4992C132.267 26.4986 132.267 26.4987 132.267 26.4979C132.267 26.4967 132.267 26.4951 132.267 26.493C132.266 26.4887 132.266 26.483 132.265 26.4758C132.263 26.4458 132.26 26.4002 132.258 26.3376C132.253 26.2134 132.248 26.0366 132.243 25.8129C132.233 25.3662 132.224 24.7425 132.217 23.9987C132.202 22.5116 132.193 20.5508 132.189 18.5804C132.186 16.61 132.188 14.6313 132.197 13.1085C132.201 12.3469 132.207 11.7006 132.215 11.2269C132.219 10.9898 132.224 10.7978 132.228 10.657C132.231 10.5864 132.233 10.5309 132.235 10.49C132.238 10.4425 132.24 10.432 132.239 10.4404L131.251 10.2861C131.239 10.3603 131.233 10.4902 131.229 10.6234C131.224 10.7725 131.219 10.9709 131.215 11.2102C131.207 11.6893 131.201 12.3397 131.197 13.1026C131.188 14.6288 131.186 16.6103 131.189 18.5823C131.193 20.5542 131.202 22.5179 131.217 24.0085C131.224 24.7536 131.233 25.382 131.243 25.8346C131.248 26.0605 131.253 26.2452 131.259 26.3797C131.262 26.4465 131.265 26.5046 131.268 26.5507C131.27 26.5735 131.272 26.5975 131.275 26.6203C131.276 26.6319 131.282 26.6808 131.298 26.7331L132.253 26.4377ZM132.137 26.0886C132.019 26.0871 131.897 26.0855 131.776 26.0854L131.775 27.0854C131.889 27.0855 132.005 27.087 132.124 27.0886L132.137 26.0886ZM132.13 26.0886H132.13V27.0886H132.13V26.0886ZM133.038 26.0757C132.75 26.0963 132.455 26.0928 132.137 26.0886L132.124 27.0886C132.435 27.0926 132.772 27.0973 133.109 27.0732L133.038 26.0757ZM132.573 10.3637V26.5745H133.573V10.3637H132.573ZM42.1138 15.887V10.3789H41.1138V15.887H42.1138ZM41.6134 16.387H41.6138V15.387H41.6134V16.387ZM41.1416 16.1314C41.1806 16.1674 41.2231 16.2066 41.2721 16.2523L41.9548 15.5216C41.9033 15.4736 41.8588 15.4324 41.8198 15.3965L41.1416 16.1314ZM40.9403 15.9411C41.0039 16.0044 41.0689 16.0643 41.1416 16.1314L41.8198 15.3965C41.7439 15.3264 41.6934 15.2797 41.6454 15.232L40.9403 15.9411ZM39.6989 15.1674C40.1659 15.3169 40.5761 15.5802 40.9409 15.9417L41.6448 15.2314C41.1834 14.7742 40.6406 14.4189 40.0038 14.215L39.6989 15.1674ZM34.9884 16.5172C36.234 14.9204 38.1259 14.6645 39.699 15.1674L40.0036 14.215C38.1317 13.6164 35.7624 13.8991 34.1999 15.9022L34.9884 16.5172ZM34.1665 17.9885C34.3653 17.4542 34.6383 16.9664 34.9885 16.5171L34.1998 15.9023C33.7871 16.4317 33.464 17.0092 33.2293 17.6396L34.1665 17.9885ZM33.751 20.2182C33.7804 19.4422 33.9023 18.6968 34.1664 17.9887L33.2294 17.6393C32.9198 18.4695 32.7841 19.3246 32.7518 20.1804L33.751 20.2182ZM34.4071 23.911C33.854 22.7647 33.7012 21.5291 33.751 20.2183L32.7518 20.1803C32.6982 21.59 32.8589 23.0035 33.5064 24.3455L34.4071 23.911ZM41.1725 25.2455C40.3343 26.0337 39.0022 26.4673 37.6895 26.3101C36.3977 26.1554 35.1407 25.4311 34.407 23.911L33.5064 24.3456C34.3999 26.1969 35.9673 27.111 37.5706 27.303C39.153 27.4925 40.7866 26.9811 41.8576 25.974L41.1725 25.2455ZM41.356 25.0908C41.2949 25.1396 41.2324 25.1892 41.1726 25.2454L41.8575 25.9741C41.8824 25.9507 41.911 25.9274 41.9804 25.8719L41.356 25.0908ZM41.3501 25.0956L41.35 25.0957L41.9864 25.867L41.9865 25.8669L41.3501 25.0956ZM41.4863 24.9855C41.4354 25.0273 41.3935 25.0608 41.3561 25.0907L41.9805 25.8718C42.0181 25.8417 42.0644 25.8048 42.1207 25.7585L41.4863 24.9855ZM42.3035 26.4689V25.372H41.3035V26.4689H42.3035ZM43.0191 25.9689H41.8035V26.9689H43.0191V25.9689ZM42.5191 10.3789V26.4689H43.5191V10.3789H42.5191ZM41.6138 10.8789H43.0191V9.87891H41.6138V10.8789ZM42.1247 20.8258C42.1247 20.6138 42.1254 20.4017 42.1261 20.1885L41.1261 20.1851C41.1254 20.398 41.1247 20.6118 41.1247 20.8258H42.1247ZM41.2703 21.1785L41.2707 21.1789L41.9786 20.4726L41.9782 20.4722L41.2703 21.1785ZM42.1231 21.4486C42.1237 21.2415 42.1244 21.0333 42.1243 20.825L41.1243 20.8257C41.1244 21.0317 41.1238 21.238 41.1231 21.4454L42.1231 21.4486ZM42.1231 21.447V21.447H41.1231V21.447H42.1231ZM42.1231 21.4471V21.447H41.1231V21.4471H42.1231ZM42.1231 21.4471V21.4471H41.1231V21.4471H42.1231ZM42.1231 21.4471V21.4471H41.1231V21.4471H42.1231ZM42.1231 21.4472V21.4471H41.1231V21.4472H42.1231ZM42.1231 21.4472V21.4472H41.1231V21.4472H42.1231ZM42.1231 21.4473V21.4472H41.1231V21.4473H42.1231ZM42.1231 21.4473V21.4473H41.1231V21.4473H42.1231ZM42.1231 21.4473V21.4473H41.1231V21.4473H42.1231ZM42.1231 21.4474V21.4473H41.1231V21.4474H42.1231ZM42.1231 21.4474V21.4474H41.1231V21.4474H42.1231ZM42.1231 21.4474V21.4474H41.1231V21.4474H42.1231ZM42.1231 21.4524L42.1231 21.4493L41.1231 21.4455L41.1231 21.4486L42.1231 21.4524ZM42.1267 22.7927C42.1202 22.3481 42.1216 21.9026 42.1231 21.452L41.1231 21.4489C41.1217 21.898 41.1202 22.3523 41.1268 22.8072L42.1267 22.7927ZM41.1703 24.9883C41.7922 24.4097 42.1398 23.6794 42.1267 22.7926L41.1268 22.8073C41.1354 23.3889 40.921 23.8544 40.4892 24.2561L41.1703 24.9883ZM37.7831 25.9551C38.9879 26.1092 40.1782 25.9108 41.1702 24.9884L40.4892 24.2561C39.7762 24.919 38.9155 25.0918 37.91 24.9631L37.7831 25.9551ZM34.6492 23.4816C35.2182 24.8717 36.2535 25.7591 37.783 25.9551L37.9101 24.9632C36.7725 24.8174 36.0211 24.1936 35.5746 23.1028L34.6492 23.4816ZM34.1653 20.2679C34.1303 21.3318 34.2171 22.4256 34.6491 23.4816L35.5747 23.1029C35.2172 22.2293 35.1321 21.2934 35.1647 20.3007L34.1653 20.2679ZM34.5845 17.9672C34.2948 18.7239 34.1901 19.505 34.1653 20.268L35.1647 20.3005C35.1874 19.6035 35.282 18.9423 35.5184 18.3248L34.5845 17.9672ZM37.4503 15.3681C35.9754 15.6832 35.0836 16.6624 34.5845 17.9674L35.5184 18.3246C35.9264 17.2582 36.5895 16.5746 37.6592 16.3461L37.4503 15.3681ZM39.3536 15.3521C38.7112 15.2152 38.0713 15.2356 37.4504 15.3681L37.6591 16.3461C38.1621 16.2388 38.6586 16.2264 39.1451 16.3301L39.3536 15.3521ZM42.123 18.7604C42.1016 17.1485 40.9196 15.6857 39.3535 15.3521L39.1452 16.3301C40.2455 16.5645 41.1078 17.6195 41.1231 18.7737L42.123 18.7604ZM42.1261 20.1885C42.1277 19.716 42.1294 19.2385 42.123 18.7604L41.1231 18.7737C41.1293 19.2421 41.1277 19.7112 41.1261 20.1851L42.1261 20.1885ZM4.91692 10.3522H2.61328V11.3522H4.91692V10.3522ZM7.20057 15.2194L5.38122 10.6667L4.45262 11.0378L6.27198 15.5905L7.20057 15.2194ZM7.20494 15.2303L7.20058 15.2194L6.27197 15.5905L6.27634 15.6014L7.20494 15.2303ZM10.3666 23.1415C9.29996 20.473 8.24811 17.8408 7.20494 15.2303L6.27634 15.6014C7.3195 18.2119 8.37137 20.8441 9.438 23.5127L10.3666 23.1415ZM9.53689 22.9127C9.50918 22.9763 9.478 23.0478 9.44271 23.1302L10.3619 23.5241C10.3958 23.4449 10.4259 23.3759 10.4536 23.3122L9.53689 22.9127ZM9.53682 22.9128L9.53669 22.9131L10.4538 23.3117L10.454 23.3114L9.53682 22.9128ZM9.53731 22.9117L9.53725 22.9119L10.4535 23.3124L10.4536 23.3122L9.53731 22.9117ZM9.66011 22.6226C9.62566 22.7089 9.58812 22.7951 9.53709 22.9122L10.4538 23.3117C10.5035 23.1978 10.5476 23.0967 10.5889 22.9933L9.66011 22.6226ZM11.9806 16.8413C11.2073 18.7681 10.434 20.6949 9.66048 22.6216L10.5885 22.9942C11.362 21.0674 12.1353 19.1406 12.9087 17.2138L11.9806 16.8413ZM14.3044 11.0518C13.5297 12.9816 12.7551 14.9115 11.9806 16.8413L12.9087 17.2138C13.6832 15.2839 14.4577 13.3541 15.2324 11.4243L14.3044 11.0518ZM14.3595 10.9082C14.3431 10.9523 14.3259 10.9983 14.3045 11.0517L15.2324 11.4244C15.2591 11.358 15.2802 11.3013 15.2966 11.2572L14.3595 10.9082ZM14.3625 10.9004L14.3624 10.9005L15.2937 11.2649L15.2937 11.2648L14.3625 10.9004ZM14.6358 10.4678C14.528 10.5522 14.4692 10.6533 14.4356 10.7221C14.4048 10.7851 14.3782 10.8579 14.3595 10.9081L15.2966 11.2571C15.3081 11.2264 15.3161 11.2051 15.3231 11.1872C15.3265 11.1787 15.329 11.1725 15.3309 11.168C15.3319 11.1658 15.3326 11.1642 15.3331 11.1631C15.3336 11.162 15.3339 11.1615 15.3339 11.1615C15.3339 11.1615 15.3335 11.1622 15.3329 11.1633C15.3323 11.1645 15.3313 11.1664 15.3299 11.1687C15.3272 11.1734 15.3227 11.1807 15.3162 11.1896C15.3025 11.2083 15.2816 11.2323 15.252 11.2555L14.6358 10.4678ZM15.3194 10.3141C15.2208 10.3143 15.1118 10.3139 15.0221 10.3229C14.9279 10.3324 14.7762 10.358 14.6358 10.4678L15.252 11.2555C15.2131 11.2858 15.1751 11.3026 15.148 11.3111C15.1246 11.3186 15.1123 11.3189 15.1224 11.3179C15.1322 11.3169 15.1512 11.3157 15.187 11.315C15.2225 11.3143 15.2648 11.3142 15.321 11.3141L15.3194 10.3141ZM15.3942 10.3139L15.319 10.3141L15.3214 11.3141L15.3966 11.3139L15.3942 10.3139ZM16.6907 10.3148C16.2576 10.3118 15.825 10.3123 15.3935 10.3139L15.3974 11.3139C15.8271 11.3123 16.2558 11.3118 16.6839 11.3148L16.6907 10.3148ZM17.0054 10.3296C16.9092 10.323 16.801 10.3155 16.6904 10.3148L16.6842 11.3148C16.7584 11.3152 16.8353 11.3203 16.9372 11.3273L17.0054 10.3296ZM17.1405 10.3383C17.0951 10.3357 17.0511 10.3327 17.0054 10.3296L16.9372 11.3273C16.9822 11.3303 17.0317 11.3337 17.0837 11.3367L17.1405 10.3383ZM17.6121 26.3183V10.8375H16.6121V26.3183H17.6121ZM15.7239 26.8183H17.1121V25.8183H15.7239V26.8183ZM15.2239 12.7401V26.3183H16.2239V12.7401H15.2239ZM15.4762 13.1846L15.5658 13.2145L15.882 12.2658L15.7924 12.2359L15.4762 13.1846ZM16.0305 13.0415C16.0487 13.0036 16.0682 12.9628 16.0875 12.9213L15.181 12.4992C15.1645 12.5346 15.1474 12.5702 15.1289 12.6089L16.0305 13.0415ZM16.0439 13.0109L16.0439 13.0109L15.1155 12.6395L15.1154 12.6395L16.0439 13.0109ZM16.0439 13.0109L16.0439 13.0109L15.1154 12.6395L15.1154 12.6395L16.0439 13.0109ZM16.0439 13.0109L16.0439 13.0109L15.1154 12.6395L15.1154 12.6395L16.0439 13.0109ZM16.0439 13.0109L16.0439 13.0109L15.1154 12.6395L15.1154 12.6395L16.0439 13.0109ZM16.0348 13.0322L16.0349 13.0321L15.1245 12.6183L15.1245 12.6184L16.0348 13.0322ZM15.9222 13.2787C15.9521 13.2053 15.9874 13.1313 16.0305 13.0415L15.1288 12.609C15.088 12.6942 15.0394 12.7952 14.9962 12.9009L15.9222 13.2787ZM12.2106 22.4058C13.4476 19.3631 14.6845 16.3206 15.9223 13.2782L14.9961 12.9014C13.7582 15.9439 12.5212 18.9865 11.2842 22.0291L12.2106 22.4058ZM12.2101 22.4068L12.2107 22.4054L11.2841 22.0295L11.2835 22.0309L12.2101 22.4068ZM10.7361 26.0324L12.21 22.4072L11.2836 22.0305L9.80971 25.6557L10.7361 26.0324ZM10.6988 26.1278C10.7125 26.0921 10.7243 26.0614 10.7363 26.0319L9.80951 25.6563C9.79345 25.6959 9.77837 25.7352 9.76522 25.7694L10.6988 26.1278ZM10.7064 26.1067L10.7064 26.1067L9.75768 25.7905L9.75768 25.7905L10.7064 26.1067ZM10.5454 26.4733C10.6152 26.3481 10.6642 26.218 10.6988 26.1278L9.76522 25.7694C9.72604 25.8715 9.70115 25.934 9.67189 25.9865L10.5454 26.4733ZM9.27761 26.4827C9.40998 26.7127 9.64879 26.8571 9.91422 26.8551C10.1797 26.8531 10.4161 26.705 10.5452 26.4736L9.67206 25.9862C9.70869 25.9206 9.79326 25.856 9.90662 25.8551C10.0199 25.8543 10.1061 25.9175 10.1443 25.9838L9.27761 26.4827ZM9.13422 26.163C9.16401 26.2414 9.20964 26.3644 9.27738 26.4823L10.1445 25.9842C10.1229 25.9467 10.1038 25.8994 10.0689 25.8076L9.13422 26.163ZM9.12723 26.1434L9.12723 26.1434L10.0759 25.8272L10.0759 25.8272L9.12723 26.1434ZM9.09997 26.0749C9.11069 26.1012 9.12123 26.1289 9.13422 26.163L10.0689 25.8076C10.0566 25.7753 10.0419 25.7365 10.0259 25.6974L9.09997 26.0749ZM6.50567 19.6982L9.09982 26.0746L10.0261 25.6977L7.43195 19.3213L6.50567 19.6982ZM3.91143 13.3215L6.50567 19.6982L7.43195 19.3213L4.8377 12.9447L3.91143 13.3215ZM3.78051 13.0886C3.82918 13.1361 3.8572 13.1878 3.91118 13.3209L4.83795 12.9453C4.77937 12.8008 4.68817 12.5773 4.47921 12.3732L3.78051 13.0886ZM4.62986 26.3347V12.7309H3.62986V26.3347H4.62986ZM2.59282 26.8355C3.09752 26.8562 3.60533 26.8602 4.15362 26.8341L4.1061 25.8352C3.59304 25.8596 3.11536 25.8561 2.63374 25.8363L2.59282 26.8355ZM2.11328 10.8522V26.3359H3.11328V10.8522H2.11328ZM159.332 15.149L159.333 15.1471L158.425 14.7269L158.424 14.7288L159.332 15.149ZM159.223 15.3931C159.252 15.3191 159.287 15.2446 159.33 15.1522L158.426 14.7256C158.385 14.8129 158.335 14.918 158.291 15.029L159.223 15.3931ZM153.673 29.5321C155.522 24.8193 157.372 20.1064 159.223 15.3938L158.292 15.0283C156.441 19.741 154.591 24.454 152.742 29.1667L153.673 29.5321ZM153.612 29.6872L153.673 29.532L152.742 29.1668L152.681 29.3219L153.612 29.6872ZM152.952 31.368L153.612 29.6872L152.681 29.3219L152.021 31.0027L152.952 31.368ZM152.904 31.4788C152.916 31.4519 152.935 31.4118 152.952 31.3687L152.021 31.002C152.015 31.0179 152.007 31.0353 151.993 31.066L152.904 31.4788ZM152.892 31.5062L152.905 31.478L151.993 31.0669L151.98 31.0951L152.892 31.5062ZM151.102 31.8006H152.436V30.8006H151.102V31.8006ZM150.652 31.0368C150.64 31.0884 150.63 31.1316 150.619 31.1731L151.586 31.4282C151.601 31.3702 151.614 31.3126 151.626 31.2635L150.652 31.0368ZM150.766 30.6413C150.709 30.7854 150.676 30.9321 150.652 31.0368L151.626 31.2635C151.653 31.1463 151.671 31.0711 151.697 31.0057L150.766 30.6413ZM151.006 30.0245L150.765 30.6422L151.697 31.0049L151.938 30.3872L151.006 30.0245ZM152.763 25.5586C152.165 27.0442 151.585 28.5359 151.006 30.0245L151.938 30.3872C152.517 28.8977 153.096 27.4111 153.69 25.9315L152.763 25.5586ZM152.769 25.0125C152.849 25.2123 152.847 25.348 152.763 25.5584L153.69 25.9316C153.865 25.4974 153.878 25.0954 153.699 24.643L152.769 25.0125ZM149.63 17.0391C150.673 19.6975 151.716 22.3567 152.769 25.0122L153.699 24.6434C152.646 21.9901 151.604 19.3327 150.561 16.674L149.63 17.0391ZM148.927 15.246L149.63 17.0391L150.561 16.6739L149.858 14.8808L148.927 15.246ZM148.814 14.9255C148.849 15.0306 148.885 15.1383 148.927 15.2456L149.858 14.8812C149.827 14.8017 149.799 14.7188 149.763 14.6088L148.814 14.9255ZM148.76 14.7645C148.779 14.8208 148.797 14.8735 148.814 14.9255L149.763 14.6089C149.745 14.5571 149.726 14.5003 149.705 14.4391L148.76 14.7645ZM150.717 14.1018H149.232V15.1018H150.717V14.1018ZM152.607 18.2243L151.186 14.4266L150.249 14.777L151.67 18.5747L152.607 18.2243ZM154.524 23.3504L152.607 18.2243L151.67 18.5747L153.588 23.7008L154.524 23.3504ZM154.149 23.0256H154.056V24.0256H154.149V23.0256ZM155.167 19.3757L153.68 23.3504L154.617 23.7008L156.104 19.7261L155.167 19.3757ZM157.022 14.4177C156.401 16.0783 155.783 17.7292 155.167 19.3757L156.104 19.7261C156.72 18.0796 157.338 16.4287 157.959 14.7682L157.022 14.4177ZM158.295 14.0716C158.023 14.0788 157.751 14.086 157.478 14.0931L157.504 15.0928C157.778 15.0857 158.05 15.0784 158.322 15.0712L158.295 14.0716ZM158.926 14.0549L158.295 14.0716L158.321 15.0712L158.953 15.0545L158.926 14.0549ZM159.44 14.8071V14.5547H158.44V14.8071H159.44ZM158.939 15.3071H158.94V14.3071H158.939V15.3071ZM159.332 15.1488C159.352 15.1067 159.374 15.0603 159.395 15.0131L158.484 14.6012C158.466 14.6399 158.448 14.6789 158.427 14.7222L159.332 15.1488ZM159.33 15.152L159.331 15.1505L158.428 14.7205L158.427 14.722L159.33 15.152ZM56.8082 23.2449L55.6072 22.5831L55.1245 23.4589L56.3255 24.1207L56.8082 23.2449ZM56.9175 24.1042C56.95 24.0363 56.9803 23.973 57.0126 23.9093L56.1211 23.4564C56.0825 23.5323 56.0472 23.6062 56.0154 23.6726L56.9175 24.1042ZM56.6814 24.5513C56.7772 24.3986 56.853 24.239 56.9175 24.1042L56.0154 23.6726C55.9463 23.817 55.8946 23.9237 55.8345 24.0194L56.6814 24.5513ZM51.1184 27.2933C52.2857 27.4036 53.357 27.2393 54.3047 26.7753C55.2527 26.3111 56.0463 25.5621 56.6813 24.5513L55.8346 24.0194C55.2828 24.8977 54.6211 25.5069 53.865 25.8772C53.1086 26.2475 52.2271 26.3937 51.2125 26.2978L51.1184 27.2933ZM46.2568 23.3674C46.6496 24.4807 47.2446 25.4091 48.0649 26.0886C48.8877 26.7702 49.9102 27.1792 51.1184 27.2933L51.2125 26.2978C50.1813 26.2003 49.3543 25.8582 48.7029 25.3186C48.049 24.7769 47.5452 24.0138 47.1998 23.0347L46.2568 23.3674ZM46.2743 17.7144C45.6221 19.5748 45.597 21.4974 46.2567 23.3674L47.1998 23.0347C46.6189 21.3881 46.638 19.6998 47.218 18.0452L46.2743 17.7144ZM50.1756 14.0238C48.1762 14.4811 46.9196 15.8741 46.2743 17.7144L47.218 18.0452C47.7751 16.4564 48.8029 15.3636 50.3986 14.9987L50.1756 14.0238ZM57.0274 18.1679C56.6207 16.6052 55.7595 15.3664 54.5504 14.6195C53.3398 13.8716 51.8276 13.646 50.1756 14.0239L50.3986 14.9987C51.8314 14.6709 53.0681 14.8792 54.0248 15.4702C54.9831 16.0622 55.7077 17.0675 56.0596 18.4198L57.0274 18.1679ZM57.2907 21.039C57.3493 20.0378 57.2687 19.0946 57.0274 18.1678L56.0596 18.4198C56.2719 19.2349 56.3455 20.0724 56.2924 20.9806L57.2907 21.039ZM47.7575 21.5098H56.7916V20.5098H47.7575V21.5098ZM48.2716 21.3017C48.2684 21.2044 48.2647 21.0925 48.2562 20.974L47.2588 21.0456C47.2657 21.1418 47.2688 21.2349 47.2721 21.3345L48.2716 21.3017ZM48.2718 21.3182V21.3181H47.2718V21.3182H48.2718ZM48.2718 21.3183V21.3182H47.2718V21.3183H48.2718ZM48.314 21.7706C48.285 21.652 48.2787 21.5181 48.2716 21.3019L47.2721 21.3347C47.2785 21.5289 47.2845 21.7707 47.3427 22.0085L48.314 21.7706ZM48.3386 21.8711L48.3141 21.771L47.3427 22.0082L47.3671 22.1083L48.3386 21.8711ZM48.3379 21.8684L48.3379 21.8684L47.3678 22.1109L47.3678 22.111L48.3379 21.8684ZM48.7252 23.1158C48.5543 22.7488 48.4517 22.3353 48.3386 21.8713L47.3671 22.1081C47.4758 22.554 47.5989 23.0661 47.8187 23.538L48.7252 23.1158ZM52.1335 24.9639C51.2668 25.0436 50.5857 24.9234 50.0476 24.632C49.513 24.3425 49.0702 23.8573 48.7253 23.1159L47.8186 23.5378C48.234 24.4307 48.8099 25.0989 49.5714 25.5113C50.3293 25.9219 51.2217 26.052 52.2251 25.9597L52.1335 24.9639ZM52.7923 24.8325C52.5447 24.8945 52.3361 24.9453 52.1335 24.9639L52.225 25.9597C52.5168 25.9329 52.7993 25.8616 53.0353 25.8025L52.7923 24.8325ZM54.6869 23.2524C54.254 24.0757 53.6528 24.6177 52.7927 24.8323L53.0349 25.8026C54.225 25.5056 55.0345 24.7399 55.572 23.7178L54.6869 23.2524ZM54.8339 22.9648C54.7777 23.0763 54.7332 23.1648 54.6873 23.2517L55.5717 23.7185C55.6228 23.6216 55.6718 23.5243 55.727 23.4146L54.8339 22.9648ZM54.8341 22.9644L54.8334 22.9658L55.7275 23.4137L55.7282 23.4123L54.8341 22.9644ZM54.8676 22.8979L54.8346 22.9633L55.7277 23.4133L55.7606 23.3479L54.8676 22.8979ZM54.9196 22.795L54.8679 22.8973L55.7603 23.3486L55.8121 23.2462L54.9196 22.795ZM55.8659 23.021V23.0206H54.8659V23.021H55.8659ZM54.6561 18.4815C54.8213 19.0419 54.8378 19.3306 54.7835 19.6778L55.7715 19.8324C55.8547 19.3002 55.8095 18.8577 55.6153 18.1988L54.6561 18.4815ZM52.6976 16.3359C53.7467 16.625 54.3297 17.3745 54.6562 18.4815L55.6153 18.1987C55.2256 16.8772 54.4487 15.7812 52.9633 15.3719L52.6976 16.3359ZM51.7478 16.19C52.0636 16.2 52.3887 16.2508 52.6976 16.3359L52.9632 15.3718C52.5818 15.2668 52.1782 15.2031 51.7796 15.1905L51.7478 16.19ZM49.1045 17.3701C49.7473 16.4988 50.6402 16.1553 51.748 16.19L51.7793 15.1905C50.415 15.1477 49.1769 15.5877 48.2998 16.7764L49.1045 17.3701ZM48.377 19.1132C48.4848 18.4696 48.7262 17.8829 49.1045 17.3701L48.2998 16.7764C47.8227 17.4231 47.523 18.1584 47.3907 18.9479L48.377 19.1132ZM48.3204 19.5585C48.3386 19.3912 48.354 19.2502 48.377 19.113L47.3907 18.9481C47.3622 19.1184 47.3439 19.2884 47.3262 19.4504L48.3204 19.5585ZM48.3233 19.5045V19.5044H47.3233V19.5045H48.3233ZM48.3197 19.5648L48.3197 19.5646L47.3269 19.4443L47.3269 19.4445L48.3197 19.5648ZM48.3204 19.5585L48.3204 19.5584L47.3262 19.4509L47.3262 19.451L48.3204 19.5585ZM48.3136 19.6029L48.3136 19.6028L47.333 19.4067L47.333 19.4068L48.3136 19.6029ZM48.3164 19.5871L48.3165 19.587L47.3301 19.4226L47.3301 19.4227L48.3164 19.5871ZM48.2914 19.8148C48.3023 19.7252 48.3116 19.6393 48.3203 19.5589L47.3262 19.4509C47.3174 19.532 47.3087 19.612 47.2987 19.6946L48.2914 19.8148ZM55.2775 19.2547H47.795V20.2547H55.2775V19.2547ZM55.7775 19.7551V19.7547H54.7775V19.7551H55.7775ZM107.415 20.522H98.4323V21.522H107.415V20.522ZM107.769 20.6688L107.769 20.6684L107.062 21.3755L107.062 21.3759L107.769 20.6688ZM106.752 18.6742C106.913 19.4057 106.961 20.1548 106.917 20.9963L107.915 21.0485C107.963 20.1362 107.913 19.2949 107.728 18.4587L106.752 18.6742ZM100.832 15.0566C102.219 14.672 103.525 14.8179 104.56 15.4179C105.591 16.0157 106.403 17.0938 106.752 18.6742L107.728 18.4587C107.327 16.6419 106.366 15.3091 105.061 14.5528C103.761 13.7988 102.172 13.6474 100.565 14.093L100.832 15.0566ZM97.8112 18.1435C98.3473 16.5862 99.303 15.4809 100.832 15.0566L100.565 14.093C98.6396 14.6271 97.4793 16.0354 96.8657 17.818L97.8112 18.1435ZM97.5853 22.1673C97.3301 20.7924 97.3641 19.4412 97.8112 18.1436L96.8657 17.8179C96.3514 19.3108 96.3221 20.8418 96.6021 22.3498L97.5853 22.1673ZM101.823 26.3048C99.6357 26.1245 98.0081 24.4463 97.5853 22.1673L96.6021 22.3498C97.0923 24.9919 99.0273 27.0778 101.74 27.3014L101.823 26.3048ZM106.461 24.0297C105.907 24.9052 105.245 25.5075 104.487 25.8747C103.729 26.2424 102.844 26.3891 101.823 26.3048L101.74 27.3014C102.906 27.3976 103.976 27.2338 104.923 26.7746C105.872 26.3149 106.668 25.574 107.306 24.5645L106.461 24.0297ZM106.644 23.6795C106.573 23.8279 106.522 23.9344 106.462 24.0289L107.306 24.5653C107.405 24.4098 107.482 24.2461 107.547 24.1083L106.644 23.6795ZM106.75 23.46C106.711 23.5375 106.676 23.6124 106.644 23.6795L107.547 24.1083C107.58 24.0398 107.61 23.9755 107.643 23.9106L106.75 23.46ZM105.85 23.5117C106.214 23.7128 106.569 23.9095 106.954 24.1228L107.439 23.2479C107.053 23.0345 106.698 22.8377 106.334 22.6366L105.85 23.5117ZM105.814 23.4917L105.85 23.5117L106.334 22.6366L106.298 22.6166L105.814 23.4917ZM105.812 23.4909L105.814 23.4916L106.298 22.6167L106.297 22.616L105.812 23.4909ZM105.787 23.4768L105.812 23.491L106.296 22.6159L106.271 22.6017L105.787 23.4768ZM105.768 23.4665L105.787 23.4769L106.271 22.6017L106.252 22.5913L105.768 23.4665ZM105.759 23.4615L105.768 23.4665L106.252 22.5913L106.243 22.5863L105.759 23.4615ZM106.419 23.3032L106.444 23.2561L105.558 22.7917L105.534 22.8388L106.419 23.3032ZM106.361 23.4139L106.418 23.3046L105.534 22.8374L105.477 22.9466L106.361 23.4139ZM106.362 23.4106L106.363 23.4101L105.475 22.9504L105.474 22.9509L106.362 23.4106ZM106.249 23.6277C106.281 23.5635 106.315 23.4991 106.36 23.4149L105.477 22.9466C105.433 23.0285 105.393 23.1046 105.354 23.1825L106.249 23.6277ZM103.44 25.8542C104.766 25.6044 105.678 24.7823 106.25 23.6268L105.354 23.1834C104.896 24.109 104.22 24.6897 103.255 24.8715L103.44 25.8542ZM101.827 25.9658C102.37 26.0005 102.921 25.9515 103.439 25.8543L103.255 24.8714C102.8 24.9568 102.334 24.9962 101.891 24.9678L101.827 25.9658ZM98.6814 23.9964C99.3823 25.1859 100.445 25.8767 101.827 25.9658L101.891 24.9678C100.858 24.9012 100.085 24.4089 99.543 23.4887L98.6814 23.9964ZM98.0254 22.3261C98.1485 22.9265 98.3782 23.4816 98.6814 23.9963L99.543 23.4888C99.2876 23.0552 99.103 22.6029 99.0051 22.1253L98.0254 22.3261ZM97.939 20.9404C97.8495 21.4821 97.9487 21.9522 98.0255 22.3262L99.0051 22.1252C98.9259 21.7394 98.8701 21.4395 98.9256 21.1035L97.939 20.9404ZM106.459 19.7602C106.455 18.8217 106.247 17.982 105.836 17.1896L104.948 17.6493C105.284 18.2984 105.456 18.9819 105.459 19.7651L106.459 19.7602ZM105.602 20.1121L105.602 20.1125L106.317 19.4128L106.316 19.4123L105.602 20.1121ZM98.4219 20.2622H105.959V19.2622H98.4219V20.2622ZM97.9487 19.4581C97.9415 19.5455 97.935 19.6238 97.9255 19.7019L98.9182 19.8226C98.9304 19.7222 98.9384 19.6249 98.9454 19.5402L97.9487 19.4581ZM97.9471 19.499V19.4992H98.9471V19.499H97.9471ZM97.9527 19.4242L97.9527 19.4244L98.9415 19.5736L98.9415 19.5735L97.9527 19.4242ZM97.9516 19.4315L97.9516 19.4317L98.9425 19.5661L98.9426 19.5659L97.9516 19.4315ZM98.0449 18.8308C97.9803 19.0544 97.9632 19.2826 97.9488 19.4576L98.9454 19.5398C98.9615 19.3451 98.9736 19.2192 99.0056 19.1083L98.0449 18.8308ZM98.5335 17.4542C98.3156 17.9081 98.1718 18.3923 98.045 18.8306L99.0056 19.1085C99.1339 18.6649 99.2577 18.2562 99.435 17.8871L98.5335 17.4542ZM102.375 15.1907C101.553 15.179 100.786 15.3309 100.12 15.7042C99.4493 16.08 98.9142 16.662 98.5336 17.4541L99.4349 17.8872C99.7363 17.2601 100.136 16.8413 100.609 16.5766C101.086 16.3093 101.669 16.1807 102.361 16.1906L102.375 15.1907ZM103.476 15.3417C103.125 15.253 102.75 15.1959 102.375 15.1907L102.361 16.1906C102.646 16.1945 102.943 16.2384 103.232 16.3113L103.476 15.3417ZM105.836 17.1895C105.327 16.2061 104.511 15.6029 103.476 15.3417L103.232 16.3113C104.007 16.5071 104.579 16.9364 104.948 17.6495L105.836 17.1895ZM30.5852 23.9197C31.0434 22.8496 31.1562 21.7294 31.1749 20.585L30.175 20.5687C30.1571 21.6669 30.0481 22.6336 29.6659 23.526L30.5852 23.9197ZM26.8593 27.1824C28.6951 26.7701 29.8807 25.5649 30.5852 23.9196L29.6659 23.526C29.0606 24.9396 28.1009 25.8786 26.6401 26.2068L26.8593 27.1824ZM20.4899 23.8664C21.5918 26.5102 24.1451 27.7925 26.8593 27.1824L26.6401 26.2068C24.3969 26.7109 22.327 25.6748 21.413 23.4817L20.4899 23.8664ZM19.9142 20.2854C19.8854 21.4821 20.0028 22.6974 20.4899 23.8663L21.413 23.4817C20.9996 22.4896 20.8869 21.4287 20.9139 20.3095L19.9142 20.2854ZM20.4113 17.562C20.0552 18.4523 19.9363 19.3789 19.9142 20.2853L20.9139 20.3096C20.9344 19.4699 21.0439 18.6732 21.3398 17.9334L20.4113 17.562ZM24.3525 13.9937C22.3819 14.446 21.128 15.7699 20.4113 17.5621L21.3398 17.9334C21.9621 16.3771 22.9911 15.3322 24.5763 14.9683L24.3525 13.9937ZM30.589 17.3246C29.5214 14.7535 27.0403 13.3767 24.3525 13.9937L24.5763 14.9683C26.7567 14.4678 28.7721 15.5566 29.6654 17.708L30.589 17.3246ZM31.1745 20.5711C31.1633 19.5298 31.0387 18.4072 30.589 17.3245L29.6655 17.7081C30.047 18.6265 30.1641 19.6068 30.1746 20.5818L31.1745 20.5711ZM31.0297 20.2245L31.0293 20.2241L30.3198 20.9288L30.3202 20.9292L31.0297 20.2245ZM22.3415 21.072V21.072H21.3415V21.072H22.3415ZM22.4611 22.0451C22.3972 21.6896 22.3652 21.3238 22.3396 21.0289L21.3434 21.1152C21.3685 21.4052 21.4037 21.815 21.4769 22.2222L22.4611 22.0451ZM23.619 24.2348C22.9822 23.6544 22.6176 22.9158 22.4611 22.0452L21.4769 22.2221C21.6657 23.2726 22.1206 24.2221 22.9454 24.9738L23.619 24.2348ZM27.6633 24.0574C26.5794 25.2376 24.8048 25.3156 23.619 24.2348L22.9453 24.9738C24.5375 26.4251 26.9426 26.3205 28.3998 24.7338L27.6633 24.0574ZM28.5509 22.3631C28.3855 23.012 28.1015 23.5803 27.6633 24.0574L28.3999 24.7338C28.9664 24.1169 29.3202 23.3936 29.5199 22.6102L28.5509 22.3631ZM28.6834 19.465C28.8111 20.4522 28.792 21.4198 28.551 22.3628L29.5198 22.6105C29.7991 21.5179 29.8151 20.4188 29.6751 19.3367L28.6834 19.465ZM27.9591 17.4619C28.3685 18.049 28.5875 18.7236 28.6834 19.465L29.6751 19.3367C29.5642 18.4793 29.303 17.6408 28.7794 16.8899L27.9591 17.4619ZM24.8048 16.2852C26.0526 15.9565 27.2112 16.39 27.9592 17.462L28.7793 16.8898C27.7964 15.4811 26.212 14.8804 24.5501 15.3182L24.8048 16.2852ZM22.6753 18.3389C23.09 17.2769 23.7506 16.563 24.8048 16.2852L24.55 15.3182C23.113 15.6969 22.2438 16.6946 21.7438 17.9753L22.6753 18.3389ZM22.3159 20.8062C22.3407 19.7514 22.4101 19.0185 22.6753 18.3389L21.7438 17.9753C21.4104 18.8297 21.3413 19.7143 21.3162 20.7826L22.3159 20.8062ZM21.3678 21.0159L21.3682 21.0168L22.2638 20.572L22.2634 20.5712L21.3678 21.0159ZM22.3396 21.0289C22.3305 20.9235 22.3218 20.8226 22.3126 20.7391L21.3186 20.848C21.3262 20.9177 21.3339 21.0058 21.3433 21.1151L22.3396 21.0289ZM22.3347 20.9898L22.3347 20.9898L21.3483 21.1542L21.3483 21.1542L22.3347 20.9898ZM68.9643 25.8345H67.6186V26.8345H68.9643V25.8345ZM68.4643 25.8342V26.3345H69.4643V25.8342H68.4643ZM68.4642 24.1311L68.4643 25.8342L69.4643 25.8342L69.4642 24.1311L68.4642 24.1311ZM68.4647 19.0216C68.4641 20.7249 68.4641 22.4281 68.4642 24.1311L69.4642 24.1311C69.4641 22.428 69.4641 20.725 69.4647 19.022L68.4647 19.0216ZM68.4645 18.9322L68.4647 19.0227L69.4647 19.021L69.4645 18.9305L68.4645 18.9322ZM68.4645 18.9311V18.9313H69.4645V18.9311H68.4645ZM68.4778 18.3953C68.4634 18.5835 68.4641 18.7697 68.4645 18.9324L69.4645 18.9298C69.4641 18.7604 69.464 18.614 69.4749 18.4719L68.4778 18.3953ZM70.1639 15.6821C69.1239 16.282 68.5687 17.2148 68.4778 18.3953L69.4749 18.472C69.5417 17.6042 69.9235 16.9752 70.6635 16.5484L70.1639 15.6821ZM72.1126 15.1649C71.4537 15.1879 70.7858 15.3235 70.164 15.6821L70.6635 16.5484C71.1055 16.2935 71.6015 16.1834 72.1475 16.1643L72.1126 15.1649ZM75.6429 18.1853C75.5223 17.2393 75.1489 16.4537 74.52 15.9153C73.8907 15.3766 73.0596 15.1317 72.1125 15.1649L72.1476 16.1643C72.9013 16.1379 73.47 16.3329 73.8697 16.675C74.2697 17.0174 74.5543 17.5536 74.6509 18.3117L75.6429 18.1853ZM75.7211 19.4199C75.7198 19.01 75.6954 18.5954 75.6429 18.185L74.6509 18.3119C74.6977 18.6774 74.7199 19.0504 74.7211 19.4231L75.7211 19.4199ZM75.7249 24.2016C75.7257 22.6085 75.7264 21.0143 75.7211 19.4199L74.7211 19.4232C74.7264 21.0154 74.7257 22.6077 74.7249 24.2011L75.7249 24.2016ZM75.7244 25.8553C75.7244 25.3041 75.7247 24.7529 75.7249 24.2016L74.7249 24.2011C74.7247 24.7524 74.7244 25.3038 74.7244 25.8553H75.7244ZM75.7244 26.3248V25.8553H74.7244V26.3248H75.7244ZM76.6263 25.8373C76.1525 25.8524 75.7288 25.8615 75.2621 25.8262L75.1868 26.8234C75.7114 26.863 76.1815 26.852 76.6582 26.8368L76.6263 25.8373ZM76.1422 25.9508V26.337H77.1422V25.9508H76.1422ZM76.1424 24.4347L76.1422 25.9507L77.1422 25.9508L77.1424 24.4349L76.1424 24.4347ZM76.1385 18.6772C76.1431 20.5959 76.1428 22.515 76.1424 24.4347L77.1424 24.4349C77.1428 22.5154 77.1431 20.595 77.1385 18.6748L76.1385 18.6772ZM76.0731 17.8743C76.1147 18.1417 76.1381 18.4119 76.1385 18.6767L77.1385 18.6752C77.138 18.3535 77.1097 18.0321 77.0613 17.7206L76.0731 17.8743ZM73.9375 15.1405C75.1628 15.5778 75.8616 16.5187 76.0732 17.8745L77.0612 17.7203C76.8017 16.0576 75.8939 14.777 74.2736 14.1987L73.9375 15.1405ZM69.4604 16.0111C70.7697 14.7759 72.2765 14.548 73.9376 15.1405L74.2736 14.1986C72.297 13.4936 70.3854 13.7637 68.7742 15.2837L69.4604 16.0111ZM69.2852 16.1319C69.3004 16.1236 69.387 16.0804 69.4607 16.0107L68.7738 15.284C68.7985 15.2607 68.8197 15.2471 68.8259 15.2433C68.8285 15.2417 68.8289 15.2416 68.8249 15.2438C68.8207 15.2462 68.8155 15.249 68.8061 15.2541L69.2852 16.1319ZM69.2173 16.1701C69.2442 16.1543 69.2648 16.143 69.2852 16.1319L68.8061 15.2541C68.7843 15.2661 68.7519 15.2837 68.7104 15.3081L69.2173 16.1701ZM68.4639 14.7306V15.7391H69.4639V14.7306H68.4639ZM67.7293 15.2239C67.8029 15.1999 67.9706 15.1742 68.2042 15.1706C68.4277 15.1672 68.6692 15.1846 68.873 15.2222L69.0547 14.2389C68.7758 14.1874 68.4673 14.1665 68.1889 14.1707C67.9207 14.1748 67.6348 14.2028 67.4187 14.2734L67.7293 15.2239ZM68.098 26.1924C68.1113 26.2373 68.1116 26.2668 68.1081 26.2299C68.1063 26.2104 68.104 26.1796 68.1016 26.1358C68.0967 26.0488 68.0919 25.9257 68.0872 25.7692C68.0778 25.457 68.0692 25.0242 68.0618 24.508C68.0468 23.4762 68.0362 22.1188 68.031 20.7435C68.0258 19.3683 68.026 17.9768 68.0328 16.8768C68.0397 15.7591 68.0535 14.9802 68.0716 14.7981L67.0765 14.6992C67.0525 14.9408 67.0395 15.784 67.0328 16.8706C67.026 17.9749 67.0258 19.37 67.031 20.7473C67.0362 22.1246 67.0469 23.4858 67.0619 24.5225C67.0694 25.0404 67.078 25.4793 67.0876 25.7993C67.0924 25.9588 67.0976 26.0918 67.1031 26.1915C67.1059 26.241 67.109 26.2861 67.1125 26.324C67.1145 26.3445 67.1203 26.4127 67.1392 26.4766L68.098 26.1924ZM95.2787 10.3398H86.2426V11.3398H95.2787V10.3398ZM95.7787 12.129V10.8398H94.7787V12.129H95.7787ZM87.6716 12.629H95.2787V11.629H87.6716V12.629ZM88.1716 18.2459V12.129H87.1716V18.2459H88.1716ZM94.653 17.7459H87.6716V18.7459H94.653V17.7459ZM95.153 19.5233V18.2459H94.153V19.5233H95.153ZM87.6591 20.0233H94.653V19.0233H87.6591V20.0233ZM88.1591 26.3286V19.5233H87.1591V26.3286H88.1591ZM86.4872 26.8442C86.871 26.8513 87.2677 26.8589 87.696 26.8272L87.6222 25.83C87.2469 25.8577 86.8951 25.8516 86.5056 25.8444L86.4872 26.8442ZM86.487 26.8442L86.4875 26.8442L86.5053 25.8443L86.5048 25.8443L86.487 26.8442ZM86.2356 26.8399C86.3196 26.8411 86.4028 26.8426 86.4867 26.8442L86.5052 25.8443C86.4216 25.8428 86.3362 25.8412 86.2496 25.84L86.2356 26.8399ZM85.7426 10.8398V26.34H86.7426V10.8398H85.7426ZM143.106 15.4612H141.539V16.4612H143.106V15.4612ZM143.606 16.488V15.9612H142.606V16.488H143.606ZM143.606 18.0676C143.606 17.5412 143.606 17.0146 143.606 16.488H142.606C142.606 17.0144 142.606 17.5408 142.606 18.0673L143.606 18.0676ZM143.61 23.0072C143.605 21.3611 143.605 19.7149 143.606 18.0676L142.606 18.0673C142.605 19.7142 142.605 21.3623 142.61 23.0104L143.61 23.0072ZM143.684 24.0608C143.63 23.7231 143.611 23.3696 143.61 23.0071L142.61 23.0104C142.612 23.4028 142.632 23.8117 142.697 24.218L143.684 24.0608ZM144.982 25.7362C144.57 25.6083 144.29 25.3986 144.092 25.1337C143.89 24.8624 143.755 24.5059 143.684 24.0609L142.696 24.2178C142.784 24.7704 142.964 25.2937 143.291 25.7315C143.622 26.1756 144.084 26.5043 144.685 26.6911L144.982 25.7362ZM146.314 25.8458C145.794 25.8561 145.379 25.8601 144.982 25.7363L144.685 26.6911C145.262 26.8709 145.84 26.8554 146.333 26.8456L146.314 25.8458ZM146.706 25.8407C146.572 25.8407 146.44 25.8434 146.314 25.8458L146.333 26.8456C146.461 26.8431 146.583 26.8407 146.706 26.8407V25.8407ZM146.206 24.9539V26.3407H147.206V24.9539H146.206ZM146.521 25.4456C146.572 25.4481 146.626 25.4507 146.682 25.4534L146.729 24.4545C146.674 24.4519 146.622 24.4493 146.571 24.4468L146.521 25.4456ZM146.254 25.4334C146.34 25.4366 146.425 25.4408 146.521 25.4456L146.571 24.4468C146.476 24.4421 146.384 24.4375 146.292 24.4341L146.254 25.4334ZM146.03 25.4277C146.109 25.4292 146.182 25.4307 146.254 25.4334L146.292 24.4341C146.209 24.431 146.126 24.4294 146.049 24.4279L146.03 25.4277ZM145.518 25.4046C145.698 25.4216 145.875 25.4248 146.03 25.4277L146.049 24.4279C145.888 24.4248 145.748 24.4219 145.613 24.4091L145.518 25.4046ZM144.162 24.2314C144.234 24.5657 144.394 24.8542 144.648 25.0649C144.898 25.2727 145.203 25.3748 145.519 25.4046L145.613 24.409C145.448 24.3934 145.348 24.3463 145.287 24.2956C145.229 24.2479 145.172 24.1687 145.14 24.0204L144.162 24.2314ZM144.026 23.1316C144.028 23.5132 144.088 23.8888 144.162 24.2315L145.14 24.0203C145.073 23.7108 145.027 23.4107 145.026 23.1266L144.026 23.1316ZM144.02 17.425C144.018 19.326 144.017 21.2288 144.026 23.1315L145.026 23.1267C145.017 21.2273 145.018 19.3272 145.02 17.4258L144.02 17.425ZM144.021 16.3134L144.02 17.4251L145.02 17.4258L145.021 16.3141L144.021 16.3134ZM144.043 16.0273C144.034 16.1049 144.021 16.207 144.021 16.3138H145.021C145.021 16.2783 145.025 16.238 145.036 16.1476L144.043 16.0273ZM144.047 16.0024L144.047 16.0027L145.032 16.1722L145.032 16.172L144.047 16.0024ZM144.058 15.8984C144.053 15.9432 144.048 15.9841 144.043 16.0271L145.036 16.1473C145.041 16.105 145.047 16.0541 145.053 15.9971L144.058 15.8984ZM147.312 15.4477H144.555V16.4477H147.312V15.4477ZM146.812 14.6173V15.9477H147.812V14.6173H146.812ZM144.502 15.1173H147.312V14.1173H144.502V15.1173ZM144.002 11.7642V14.6173H145.002V11.7642H144.002ZM144.173 12.261C144.278 12.2623 144.387 12.2636 144.499 12.2642L144.504 11.2642C144.396 11.2636 144.29 11.2623 144.184 11.2611L144.173 12.261ZM143.175 12.2745C143.506 12.2533 143.819 12.2568 144.173 12.261L144.184 11.2611C143.836 11.2569 143.485 11.2525 143.111 11.2766L143.175 12.2745ZM143.643 14.6392V11.7755H142.643V14.6392H143.643ZM141.539 15.1392H143.143V14.1392H141.539V15.1392ZM142.039 15.9612V14.6392H141.039V15.9612H142.039ZM120.002 11.2773H118.648V12.2773H120.002V11.2773ZM120.502 14.6225V11.7773H119.502V14.6225H120.502ZM122.808 14.1225H120.002V15.1225H122.808V14.1225ZM123.308 15.9516V14.6225H122.308V15.9516H123.308ZM120.041 16.4516H122.808V15.4516H120.041V16.4516ZM120.528 16.1432C120.531 16.0969 120.536 16.044 120.54 15.9855L119.542 15.9177C119.539 15.9679 119.535 16.014 119.531 16.0604L120.528 16.1432ZM120.528 16.1383L120.528 16.1374L119.531 16.0662L119.53 16.0672L120.528 16.1383ZM120.528 16.1391L120.528 16.1384L119.53 16.0671L119.53 16.0677L120.528 16.1391ZM120.515 16.3598C120.515 16.3031 120.519 16.2433 120.527 16.1447L119.531 16.0621C119.523 16.1522 119.515 16.2544 119.515 16.3598H120.515ZM120.514 17.5481L120.515 16.3601L119.515 16.3594L119.514 17.5474L120.514 17.5481ZM120.52 23.0427C120.511 21.212 120.512 19.3808 120.514 17.5481L119.514 17.5473C119.512 19.3795 119.511 21.2135 119.52 23.0475L120.52 23.0427ZM120.627 23.9727C120.558 23.6699 120.521 23.3527 120.52 23.0427L119.52 23.0475C119.522 23.4318 119.567 23.8223 119.653 24.1961L120.627 23.9727ZM121.15 24.4142C120.935 24.3938 120.837 24.3436 120.786 24.3004C120.738 24.2594 120.674 24.1769 120.627 23.9724L119.653 24.1964C119.73 24.5342 119.875 24.8396 120.141 25.0639C120.403 25.286 120.725 25.3784 121.056 25.4098L121.15 24.4142ZM121.6 24.4316C121.432 24.4295 121.289 24.4275 121.151 24.4142L121.056 25.4097C121.242 25.4275 121.427 25.4295 121.588 25.4315L121.6 24.4316ZM121.78 24.4344C121.719 24.433 121.658 24.4323 121.6 24.4316L121.588 25.4315C121.646 25.4322 121.702 25.4329 121.757 25.4342L121.78 24.4344ZM122.049 24.4352C121.947 24.4358 121.863 24.4362 121.78 24.4344L121.758 25.4342C121.857 25.4363 121.955 25.4358 122.054 25.4352L122.049 24.4352ZM122.207 24.4347C122.15 24.4347 122.098 24.435 122.049 24.4352L122.054 25.4352C122.103 25.435 122.153 25.4347 122.207 25.4347V24.4347ZM122.707 26.3299V24.9347H121.707V26.3299H122.707ZM122.04 26.8368C122.103 26.8343 122.164 26.8318 122.225 26.8296L122.188 25.8303C122.125 25.8326 122.062 25.8351 122 25.8376L122.04 26.8368ZM119.969 26.6166C120.688 26.8984 121.421 26.8619 122.04 26.8368L122 25.8376C121.346 25.8641 120.826 25.8784 120.334 25.6856L119.969 26.6166ZM118.184 24.1486C118.338 25.192 118.807 26.1615 119.969 26.6167L120.334 25.6855C119.624 25.4077 119.296 24.839 119.173 24.0025L118.184 24.1486ZM118.106 22.9457C118.106 23.3357 118.124 23.7432 118.184 24.1486L119.173 24.0024C119.123 23.6631 119.106 23.3083 119.106 22.9434L118.106 22.9457ZM118.102 18.0901C118.101 19.708 118.101 21.3269 118.106 22.9461L119.106 22.943C119.101 21.3258 119.101 19.7087 119.102 18.0904L118.102 18.0901ZM118.102 18.0342L118.102 18.09L119.102 18.0905L119.102 18.0346L118.102 18.0342ZM118.102 16.4696C118.102 16.9911 118.102 17.5126 118.102 18.0342L119.102 18.0346C119.102 17.513 119.102 16.9913 119.102 16.4696H118.102ZM118.102 15.9647V16.4696H119.102V15.9647H118.102ZM117.027 16.4647H118.602V15.4647H117.027V16.4647ZM116.527 14.6477V15.9647H117.527V14.6477H116.527ZM118.64 14.1196C118.075 14.1293 117.543 14.1385 117.019 14.1478L117.036 15.1476C117.561 15.1384 118.092 15.1291 118.657 15.1195L118.64 14.1196ZM118.148 11.7773V14.6195H119.148V11.7773H118.148ZM115.956 15.5909L116.102 14.8567L115.121 14.6613L114.975 15.3955L115.956 15.5909ZM115.822 16.2625L115.956 15.5909L114.975 15.3955L114.841 16.067L115.822 16.2625ZM114.886 16.6363C115.018 16.6466 115.161 16.6578 115.31 16.6643L115.353 15.6652C115.224 15.6596 115.098 15.6498 114.964 15.6394L114.886 16.6363ZM114.153 16.6189C114.367 16.5972 114.593 16.6134 114.886 16.6363L114.964 15.6394C114.688 15.6178 114.371 15.5917 114.052 15.6239L114.153 16.6189ZM112.832 17.7349C112.941 17.3854 113.109 17.1282 113.317 16.9507C113.523 16.7747 113.796 16.6549 114.152 16.6189L114.052 15.6239C113.516 15.678 113.046 15.8674 112.668 16.1897C112.292 16.5104 112.032 16.9406 111.877 17.4372L112.832 17.7349ZM112.667 18.9122C112.671 18.5037 112.72 18.0953 112.832 17.7348L111.877 17.4372C111.728 17.9166 111.671 18.428 111.668 18.9047L112.667 18.9122ZM112.658 24.239C112.656 22.4615 112.654 20.6865 112.667 18.9122L111.668 18.9048C111.654 20.684 111.656 22.4631 111.658 24.2399L112.658 24.239ZM112.659 26.0171C112.659 25.4243 112.658 24.8315 112.658 24.239L111.658 24.2399C111.658 24.8325 111.659 25.4248 111.659 26.0171H112.659ZM112.659 26.5721V26.0171H111.659V26.5721H112.659ZM111.254 27.0869C111.545 27.0894 111.861 27.0923 112.191 27.071L112.127 26.0731C111.839 26.0917 111.558 26.0895 111.263 26.0869L111.254 27.0869ZM111.259 27.0869H111.259V26.0869H111.259V27.0869ZM110.796 27.0863C110.945 27.0842 111.095 27.0855 111.254 27.0869L111.263 26.0869C111.106 26.0855 110.944 26.0841 110.782 26.0864L110.796 27.0863ZM110.271 14.7002C110.255 14.777 110.249 14.8921 110.244 14.9852C110.238 15.0976 110.234 15.2446 110.229 15.4193C110.22 15.7695 110.214 16.242 110.209 16.794C110.198 17.8986 110.195 19.3293 110.199 20.7544C110.202 22.1793 110.211 23.6005 110.227 24.6858C110.234 25.2281 110.244 25.6888 110.254 26.0249C110.26 26.1924 110.265 26.3324 110.272 26.4374C110.275 26.4895 110.278 26.5374 110.282 26.5777C110.285 26.5983 110.291 26.6738 110.315 26.7443L111.264 26.4284C111.281 26.4793 111.281 26.5143 111.277 26.4748C111.275 26.455 111.273 26.4232 111.27 26.3774C111.264 26.2865 111.259 26.1575 111.254 25.9933C111.243 25.6659 111.234 25.212 111.227 24.6717C111.211 23.5916 111.202 22.1748 111.199 20.7521C111.195 19.3294 111.198 17.9027 111.208 16.8032C111.214 16.2531 111.22 15.7867 111.229 15.4443C111.233 15.2728 111.238 15.135 111.243 15.0345C111.249 14.9147 111.254 14.8889 111.25 14.907L110.271 14.7002ZM112.086 14.3036H110.761V15.3036H112.086V14.3036ZM112.586 15.9157V14.8036H111.586V15.9157H112.586ZM112.455 15.5677L112.389 15.5176L111.784 16.3137L111.85 16.3638L112.455 15.5677ZM115.753 14.2789C114.937 14.0388 114.177 14.0267 113.484 14.275C112.792 14.5227 112.22 15.0104 111.745 15.675L112.559 16.2564C112.948 15.7118 113.368 15.3787 113.821 15.2164C114.272 15.0548 114.81 15.0437 115.471 15.2383L115.753 14.2789ZM115.966 15.112L115.966 15.1115L115.258 14.4056L115.258 14.4061L115.966 15.112ZM64.4831 14.6833L64.483 14.6837L65.4648 14.8737L65.4649 14.8733L64.4831 14.6833ZM65.474 14.7787V14.7783H64.474V14.7787H65.474ZM64.8087 15.2506L64.8088 15.2507L65.1391 14.3068L65.1391 14.3068L64.8087 15.2506ZM65.1387 14.3066C64.6408 14.1329 64.1449 14.0334 63.6013 14.106L63.7337 15.0972C64.0664 15.0528 64.3958 15.1065 64.8091 15.2508L65.1387 14.3066ZM65.3084 15.6734L65.4646 14.8747L64.4832 14.6827L64.327 15.4814L65.3084 15.6734ZM65.1837 16.3107L65.3084 15.6734L64.327 15.4814L64.2023 16.1188L65.1837 16.3107ZM64.4888 16.6854C64.5252 16.6921 64.5615 16.6988 64.6001 16.7061L64.7859 15.7235C64.7441 15.7156 64.7051 15.7084 64.669 15.7018L64.4888 16.6854ZM64.4909 16.6858L64.491 16.6858L64.6668 15.7014L64.6667 15.7014L64.4909 16.6858ZM64.314 16.6524C64.373 16.6642 64.4314 16.6749 64.4887 16.6854L64.6689 15.7018C64.6101 15.691 64.5602 15.6819 64.5109 15.672L64.314 16.6524ZM62.9814 16.7766C63.3712 16.5693 63.8057 16.5501 64.3138 16.6523L64.5111 15.672C63.8737 15.5437 63.1793 15.5388 62.5119 15.8936L62.9814 16.7766ZM62.0608 18.31C62.1471 17.5913 62.4135 17.0786 62.9814 16.7766L62.5119 15.8936C61.5607 16.3995 61.1784 17.2702 61.0679 18.1908L62.0608 18.31ZM62.0248 19.2171C62.0252 18.8902 62.0266 18.5948 62.0608 18.3101L61.068 18.1907C61.0255 18.5438 61.0252 18.898 61.0248 19.2158L62.0248 19.2171ZM62.0229 24.3256C62.0226 22.6224 62.0223 20.9197 62.0248 19.2171L61.0248 19.2157C61.0223 20.9192 61.0226 22.6227 61.0229 24.3258L62.0229 24.3256ZM62.0231 26.0313L62.0229 24.3256L61.0229 24.3257L61.0231 26.0314L62.0231 26.0313ZM62.0231 26.5607V26.0313H61.0231V26.5607H62.0231ZM60.1328 27.0607H61.5231V26.0607H60.1328V27.0607ZM59.6081 14.7661C59.5938 14.8839 59.5852 15.1586 59.5784 15.5073C59.5713 15.8711 59.5659 16.3513 59.5621 16.9071C59.5544 18.019 59.5529 19.4386 59.5566 20.845C59.5603 22.2514 59.5691 23.646 59.5822 24.7079C59.5887 25.2385 59.5963 25.6878 59.6049 26.0144C59.6092 26.1774 59.6138 26.3126 59.6187 26.4132C59.6212 26.4632 59.6239 26.5083 59.6271 26.5456C59.6287 26.5646 59.6338 26.6329 59.6515 26.6959L60.6142 26.4254C60.6268 26.4702 60.6268 26.5 60.6235 26.4611C60.6218 26.4407 60.6197 26.4088 60.6175 26.3639C60.6131 26.2747 60.6088 26.1485 60.6045 25.9882C60.5962 25.6685 60.5886 25.2246 60.5821 24.6956C60.5691 23.638 60.5603 22.2468 60.5566 20.8424C60.5529 19.4379 60.5544 18.0217 60.5621 16.914C60.5659 16.3599 60.5712 15.8845 60.5782 15.5268C60.5855 15.154 60.5942 14.9414 60.6009 14.8864L59.6081 14.7661ZM60.994 14.2901C60.6983 14.2837 60.3606 14.2748 60.0197 14.3335L60.1893 15.319C60.4191 15.2795 60.6591 15.2831 60.9725 15.2898L60.994 14.2901ZM61.4494 14.2932C61.2979 14.2966 61.1501 14.2934 60.994 14.2901L60.9725 15.2898C61.1255 15.2932 61.2949 15.2969 61.4718 15.2929L61.4494 14.2932ZM61.9606 15.9568V14.793H60.9606V15.9568H61.9606ZM61.4228 15.2957C61.3219 15.3955 61.2223 15.494 61.117 15.5936L61.8041 16.3201C61.9187 16.2117 62.0261 16.1056 62.126 16.0068L61.4228 15.2957ZM62.1229 14.6588C61.8666 14.8559 61.6389 15.0821 61.4228 15.2957L62.126 16.0068C62.3505 15.7847 62.5341 15.6041 62.7325 15.4515L62.1229 14.6588ZM63.6014 14.106C63.1159 14.1707 62.5811 14.3063 62.1228 14.6589L62.7326 15.4515C62.9897 15.2537 63.3228 15.152 63.7336 15.0972L63.6014 14.106ZM127.481 14.1016H126.102V15.1016H127.481V14.1016ZM128.009 26.3913C128.025 26.2699 128.034 25.9927 128.042 25.6439C128.049 25.2794 128.055 24.7991 128.059 24.2438C128.068 23.1329 128.069 21.7159 128.065 20.3122C128.061 18.9086 128.051 17.5167 128.037 16.4559C128.03 15.9259 128.021 15.4766 128.012 15.1492C128.007 14.986 128.002 14.85 127.996 14.7483C127.993 14.6979 127.99 14.6519 127.987 14.6135C127.985 14.5933 127.979 14.5235 127.96 14.4584L127.001 14.7447C126.988 14.6987 126.987 14.6682 126.991 14.7064C126.993 14.7264 126.995 14.758 126.998 14.8029C127.002 14.892 127.007 15.0181 127.012 15.1783C127.021 15.498 127.03 15.9412 127.037 16.4696C127.051 17.5255 127.061 18.9136 127.065 20.3152C127.069 21.7167 127.068 23.13 127.059 24.2364C127.055 24.7898 127.05 25.2649 127.042 25.6228C127.034 25.9963 127.025 26.2085 127.018 26.2637L128.009 26.3913ZM126.504 26.8457C126.834 26.8512 127.196 26.8577 127.558 26.8256L127.469 25.8295C127.169 25.8561 126.859 25.8515 126.52 25.8459L126.504 26.8457ZM126.496 26.8455L126.496 26.8455L126.527 25.846L126.527 25.846L126.496 26.8455ZM126.136 26.8414C126.256 26.8416 126.377 26.8436 126.503 26.8457L126.52 25.8459C126.395 25.8438 126.266 25.8416 126.137 25.8414L126.136 26.8414ZM125.606 14.5355C125.59 14.6543 125.581 14.9304 125.574 15.2758C125.566 15.638 125.561 16.117 125.557 16.6717C125.548 17.7814 125.547 19.2001 125.551 20.6069C125.555 22.0137 125.565 23.4101 125.58 24.4754C125.587 25.0077 125.596 25.4592 125.605 25.7886C125.61 25.9528 125.615 26.0898 125.621 26.1923C125.624 26.2432 125.627 26.2895 125.63 26.3283C125.632 26.3499 125.638 26.418 125.657 26.4815L126.617 26.2013C126.629 26.2451 126.629 26.2731 126.626 26.2355C126.624 26.215 126.622 26.1829 126.619 26.1376C126.614 26.0477 126.609 25.9206 126.605 25.7593C126.595 25.4377 126.587 24.9922 126.58 24.4617C126.565 23.4013 126.555 22.0086 126.551 20.604C126.547 19.1993 126.548 17.7843 126.557 16.679C126.561 16.1262 126.566 15.6524 126.574 15.2967C126.578 15.1187 126.582 14.9721 126.586 14.8609C126.588 14.8053 126.591 14.7602 126.593 14.7255C126.594 14.7081 126.595 14.6944 126.596 14.6839C126.596 14.6787 126.597 14.6747 126.597 14.6718C126.597 14.6688 126.598 14.6675 126.598 14.6676L125.606 14.5355ZM138.725 25.8248H137.279V26.8248H138.725V25.8248ZM138.225 14.6094V26.3248H139.225V14.6094H138.225ZM137.279 15.1094H138.725V14.1094H137.279V15.1094ZM137.779 26.3248V14.6094H136.779V26.3248H137.779ZM127.716 10.3398H125.891V11.3398H127.716V10.3398ZM128.216 12.5691V10.8398H127.216V12.5691H128.216ZM125.796 13.0866C126.081 13.1413 126.505 13.1585 126.876 13.1528C127.066 13.1499 127.255 13.1408 127.42 13.1251C127.572 13.1107 127.743 13.0874 127.875 13.0433L127.558 12.0949C127.559 12.0945 127.554 12.0962 127.541 12.0992C127.528 12.1021 127.512 12.1054 127.49 12.109C127.447 12.1163 127.391 12.1233 127.325 12.1296C127.193 12.1422 127.031 12.1503 126.86 12.1529C126.509 12.1583 126.167 12.1395 125.985 12.1046L125.796 13.0866ZM125.391 10.8398V12.5956H126.391V10.8398H125.391ZM138.413 10.8438V12.6159H139.413V10.8438H138.413ZM137.105 11.3438H138.913V10.3438H137.105V11.3438ZM137.605 12.6159V10.8438H136.605V12.6159H137.605ZM138.913 12.1159H137.105V13.1159H138.913V12.1159Z" fill="#191A1F" mask="url(#path-1-outside-1_576_1335)"/>
</svg>
