<svg width="117" height="42" viewBox="0 0 117 42" fill="none" xmlns="http://www.w3.org/2000/svg">
<path d="M5.87846 13.8451H0.765625V32.5209H5.87846V22.3576H8.82875V18.1573H5.87846V13.8451ZM20.6529 17.6817C19.7344 17.6449 18.8213 17.8362 17.999 18.2378C17.1768 18.6394 16.4722 19.2382 15.9513 19.9782H15.8923V13.8451H10.6774V32.5209H15.8941V25.1584C15.8941 23.4787 16.5538 21.742 18.6172 21.742C20.7101 21.742 20.968 23.4787 20.968 25.1584V32.5232H26.1847V23.7306C26.1847 20.0946 24.3797 17.6817 20.6529 17.6817V17.6817ZM35.9684 17.6812C31.1819 17.6812 27.8256 20.5632 27.8256 25.3538C27.8256 30.3109 31.4657 32.9987 36.3395 32.9987C37.9898 33.0263 39.616 32.6095 41.0399 31.794C41.7376 31.3898 42.3439 30.8512 42.8218 30.211C43.2998 29.5708 43.6395 28.8423 43.8203 28.0698H38.8048C38.5635 28.5006 38.1995 28.8538 37.7569 29.0866C37.3144 29.3195 36.8122 29.422 36.3112 29.3817C34.161 29.3817 33.0435 28.2618 33.0435 26.1896H44.0227V25.6575C44.0215 20.7609 41.0688 17.6812 35.9684 17.6812ZM33.1279 23.2545C33.3063 22.6043 33.6994 22.0297 34.2461 21.6199C34.7929 21.2102 35.4628 20.9881 36.1519 20.9881C36.841 20.9881 37.5109 21.2102 38.0577 21.6199C38.6044 22.0297 38.9975 22.6043 39.1759 23.2545H33.1279ZM48.9573 11.2968C47.5235 12.8929 47.4662 14.3518 47.4662 16.3381V18.1573H45.6371V22.3611H47.4662V32.5266H52.6829V22.3611H56.3265V18.1573H52.6829V15.8338C52.6829 14.2089 53.142 13.4255 54.4891 13.4255C55.1269 13.454 55.7508 13.6168 56.3183 13.9028V9.50535C55.6287 9.15855 54.8615 8.98521 54.0861 9.00099C53.1107 8.9943 52.1456 9.19643 51.2587 9.59317C50.3718 9.98991 49.5847 10.5716 48.9526 11.2974L48.9573 11.2968ZM68.6912 25.8299C68.6912 27.6502 68.2321 28.9385 66.0813 28.9385C63.9306 28.9385 63.4733 27.6502 63.4733 25.8299V18.1573H58.259V26.8104C58.259 31.5427 61.6695 32.9993 66.0837 32.9993C70.4979 32.9993 73.9114 31.5462 73.9114 26.8104V18.1573H68.6912V25.8299ZM82.6838 13.8451H77.4659V18.1573H75.7748V22.3576H77.4659V32.5232H82.6838V22.3576H85.634V18.1573H82.6838V13.8451ZM97.893 25.8299C97.893 27.6502 97.4352 28.9385 95.285 28.9385C93.1348 28.9385 92.6764 27.6502 92.6764 25.8299V18.1573H87.4585V26.8104C87.4585 31.5427 90.8702 32.9993 95.285 32.9993C99.6998 32.9993 103.11 31.5462 103.11 26.8104V18.1573H97.893V25.8299ZM115.085 17.9619C114.126 17.9074 113.172 18.1175 112.329 18.568C111.487 19.0185 110.792 19.6913 110.323 20.5096H110.264V18.1573H105.05V32.5232H110.268V26.7274C110.268 24.2626 110.983 22.3864 113.879 22.3864C114.646 22.3459 115.409 22.511 116.087 22.8637V17.9642L115.085 17.9619Z" fill="#191A1F"/>
</svg>
