<svg width="103" height="42" viewBox="0 0 103 42" fill="none" xmlns="http://www.w3.org/2000/svg">
<path d="M18.5639 28.0301C18.5639 27.7245 18.3623 27.5207 17.9589 27.4188V27.2151C18.1606 27.2151 18.9169 27.266 19.1186 27.266C19.2699 27.266 20.0261 27.2151 20.2278 27.2151V27.4188C19.8748 27.5207 19.6732 27.7245 19.6732 28.0301V31.8509C19.6732 33.0735 20.3286 33.7358 21.69 33.7358C22.9001 33.7358 23.8077 33.1754 23.8077 31.9019V27.9792C23.8077 27.6736 23.606 27.4698 23.2026 27.3679V27.2151C23.3539 27.2151 23.9589 27.266 24.1606 27.266C24.3622 27.266 24.9673 27.2151 25.1185 27.2151V27.4188C24.6648 27.5207 24.5135 27.7245 24.5135 28.0301V31.749C24.5135 33.4302 23.5555 34.3981 21.4883 34.3981C19.5723 34.3981 18.5639 33.532 18.5639 31.9528V28.0301ZM26.8328 34.0924C27.2866 33.9905 27.4379 33.7868 27.4379 33.4811V28.183C27.4379 27.7245 27.1858 27.5207 26.7824 27.4188V27.2151H28.2446L32.7824 32.6151V28.0301C32.7824 27.7245 32.5807 27.5207 32.1774 27.4188V27.2151C32.3287 27.2151 32.9337 27.266 33.1354 27.266C33.337 27.266 33.9421 27.2151 34.0933 27.2151V27.4188C33.6395 27.5207 33.4379 27.7245 33.4379 28.0301V34.3981H33.1858C33.0345 34.3472 32.6816 34.1943 32.1774 33.6339L28.0934 28.8452V33.532C28.0934 33.8377 28.2447 34.0415 28.6984 34.1433V34.3472C28.5471 34.3472 27.9421 34.2962 27.7404 34.2962C27.5387 34.2962 26.9337 34.3472 26.7824 34.3472L26.8328 34.0924ZM62.732 32.666H62.9337C63.0345 33.0735 63.2362 33.4302 63.5892 33.6339C63.8917 33.8887 64.4463 33.9905 64.8497 33.9905C65.7572 33.9905 66.3623 33.532 66.3623 32.8188C66.3623 32.0547 65.606 31.6981 64.7488 31.2396C64.0933 30.883 62.7825 30.3735 62.7825 29.1C62.7825 27.9283 63.69 27.1642 65.1018 27.1642C66.0598 27.1642 66.4631 27.4188 67.1186 27.3679V28.7943H66.9169C66.6648 27.9283 65.9085 27.6736 65.0513 27.6736C64.0933 27.6736 63.7908 28.234 63.7908 28.7434C63.7908 29.5075 64.5471 29.915 65.4043 30.3226C66.3623 30.7302 67.4211 31.2905 67.4211 32.5132C67.4211 33.6848 66.5135 34.5 64.9001 34.5C63.9421 34.5 63.337 34.1943 62.8329 34.1433L62.732 32.666ZM82.2447 31.3415L80.3793 28.3358C80.0763 27.8264 79.8247 27.5207 79.4718 27.4188V27.2151C79.7234 27.2151 80.4291 27.266 80.581 27.266C80.7827 27.266 81.4884 27.2151 81.7906 27.2151V27.4188C81.539 27.4698 81.4378 27.5717 81.4378 27.7755C81.4378 27.9283 81.539 28.1321 81.6395 28.3358C81.74 28.4886 83.0011 30.6283 83.0011 30.6283L84.3119 28.3358C84.463 28.0811 84.5137 27.8773 84.5137 27.7245C84.5137 27.5717 84.4124 27.4698 84.2107 27.4698V27.2151C84.4124 27.2151 84.9171 27.266 85.0683 27.266C85.2194 27.266 85.7739 27.2151 85.9757 27.2151V27.4188C85.4717 27.6226 85.1687 28.0811 84.8665 28.5906L83.2028 31.4434M83.3033 31.0868V33.4811C83.3033 33.7358 83.505 34.0415 83.9085 34.0924V34.2962C83.7067 34.2962 82.9504 34.2453 82.7487 34.2453C82.547 34.2453 81.8413 34.2962 81.5889 34.2962V34.0924C81.9924 33.9905 82.1941 33.7358 82.1941 33.4811V31.1886M47.858 27.2151H52.1942C52.3454 27.2151 52.5471 27.2151 52.6984 27.1132H52.9001L52.8496 28.5396H52.648C52.4967 28.0811 52.295 27.7245 51.4883 27.7245H49.6228V30.2717H51.0849C51.2866 30.2717 51.5387 30.2717 51.6396 30.2207C51.9421 30.1698 52.0933 29.966 52.1942 29.6604H52.3959V31.4434H52.1942C52.0933 31.1377 51.9925 30.9339 51.6396 30.883C51.5387 30.832 51.2866 30.832 51.0849 30.832H49.6228V33.7358H51.69C52.5976 33.7358 52.8496 33.3792 53.0514 32.8188H53.253L53.0514 34.2962C52.3959 34.2453 51.9925 34.2453 51.2362 34.2453H49.0681C48.8665 34.2453 48.1102 34.2962 47.858 34.2962V34.0924C48.2614 33.9905 48.4631 33.8377 48.4631 33.4302V28.0301C48.4631 27.6736 48.2614 27.4698 47.858 27.4188V27.2151ZM36.7657 28.0811C36.7657 27.7245 36.5639 27.5207 36.1606 27.4188V27.2151C36.4127 27.2151 37.1186 27.266 37.3706 27.266C37.5724 27.266 38.3287 27.2151 38.5807 27.2151V27.4188C38.1774 27.5207 37.9253 27.6736 37.9253 28.0811V33.4302C37.9253 33.7868 38.1269 33.9905 38.5807 34.0924V34.2962C38.3287 34.2962 37.6228 34.2453 37.3706 34.2453C37.169 34.2453 36.4127 34.2962 36.1606 34.2962V34.0924C36.6144 33.9905 36.8161 33.8377 36.8161 33.4302L36.7657 28.0811ZM69.69 28.0811C69.69 27.7245 69.4883 27.5207 69.0849 27.4188V27.2151C69.3371 27.2151 70.0934 27.266 70.295 27.266C70.4967 27.266 71.253 27.2151 71.5051 27.2151V27.4188C71.1017 27.5207 70.9001 27.6736 70.9001 28.0811V33.4302C70.9001 33.7868 71.1017 33.9905 71.5051 34.0924V34.2962C71.253 34.2962 70.5472 34.2453 70.295 34.2453C70.0934 34.2453 69.3371 34.2962 69.0849 34.2962V34.0924C69.5387 33.9905 69.69 33.8377 69.69 33.4302V28.0811ZM75.7404 27.266C73.3707 27.266 72.9673 27.2151 72.5135 27.1642V28.5906H72.7152C72.9169 27.9283 73.2698 27.7755 73.7236 27.7755H75.2362V33.3792C75.2362 33.7358 75.0345 33.9396 74.5808 34.0415V34.2453C74.8328 34.2453 75.5891 34.1943 75.7909 34.1943C75.9925 34.1943 76.7488 34.2453 77.0012 34.2453V34.0415C76.5977 33.9396 76.3454 33.7358 76.3454 33.3792V27.7755H77.8074C78.2615 27.7755 78.6143 27.9283 78.816 28.5906H79.0178V27.1642C78.4632 27.2151 78.1103 27.266 75.7404 27.266ZM56.732 33.4302C56.732 33.7868 56.9337 33.9905 57.3875 34.0924V34.2962C57.1354 34.2962 56.3791 34.2453 56.1774 34.2453C55.9757 34.2453 55.2698 34.2962 55.0177 34.2962V34.0924C55.4211 33.9905 55.6227 33.8377 55.6227 33.4302V28.0301C55.6227 27.6736 55.4211 27.4698 55.0177 27.4188V27.2151C55.2698 27.2151 55.9757 27.266 56.1774 27.266C56.5303 27.266 57.4883 27.2151 57.8917 27.2151C59.5556 27.2151 60.4631 27.9283 60.4631 29.1C60.4631 30.017 59.7572 30.6792 58.6984 30.9339C58.6984 30.9339 58.9505 31.0868 59.2026 31.3415C59.5051 31.6981 60.3119 32.8189 60.6144 33.2264C60.9169 33.6339 61.3706 34.0924 61.8244 34.0924V34.2453C61.6228 34.2962 61.2698 34.3472 61.0177 34.3472C60.4631 34.3472 60.0093 34.1433 59.5556 33.6339C59.1522 33.1754 58.5471 32.2075 58.1438 31.6981C57.8917 31.3924 57.5891 31.1377 57.085 31.0358C56.9841 31.0358 56.8832 30.9849 56.7824 30.9849L56.732 33.4302ZM56.732 30.5774C56.9337 30.6283 57.2866 30.6283 57.5891 30.6283C58.9001 30.6283 59.3034 29.8641 59.3034 29.2019C59.3034 28.234 58.6984 27.6736 57.5388 27.6736C57.2866 27.6736 56.9841 27.7245 56.732 27.7755V30.5774ZM40.1942 28.0811C40.043 27.7245 39.7908 27.4698 39.3874 27.4188V27.2151C39.6396 27.2151 40.4967 27.266 40.6984 27.266C40.8497 27.266 41.606 27.2151 41.858 27.2151V27.4188C41.6564 27.4698 41.3538 27.5717 41.3538 27.8264C41.3538 27.9792 41.4547 28.234 41.6564 28.6415L43.4715 32.7679L45.1858 28.6415C45.3371 28.2849 45.4379 28.0301 45.4379 27.8773C45.4379 27.6736 45.2362 27.5207 44.9337 27.4698V27.2151C45.1354 27.2151 45.69 27.266 45.8916 27.266C46.0429 27.266 46.6984 27.2151 46.9505 27.2151V27.4188C46.5472 27.5207 46.2446 27.7755 46.0429 28.3358L43.5219 34.2962H42.9673L40.1942 28.0811ZM46.6479 9.28302C46.3454 8.62076 45.8916 8.16226 45.1858 8.00943V7.65283C45.6396 7.65283 47.2026 7.70377 47.5555 7.70377C47.858 7.70377 49.3707 7.65283 49.8748 7.65283V8.00943C49.4715 8.11132 48.9673 8.31509 48.9673 8.77358C48.9673 9.07924 49.169 9.53773 49.5219 10.3019L52.9505 18.1472L56.1774 10.3019C56.4295 9.69056 56.6312 9.18113 56.6312 8.82453C56.6312 8.41698 56.2278 8.11132 55.7236 8.00943V7.65283C56.1774 7.65283 57.1858 7.70377 57.5388 7.70377C57.8413 7.70377 59.0513 7.65283 59.5556 7.65283V8.00943C58.7489 8.21321 58.2446 8.72264 57.7908 9.7415L53.0514 21.051H51.9925L46.6479 9.28302ZM0.765625 20.5925C1.37067 20.4396 1.82445 20.1849 1.82445 19.4717V9.13019C1.82445 8.46792 1.42109 8.16226 0.765625 8.00943V7.60189C1.06815 7.60189 2.47991 7.65283 2.83285 7.65283C3.23621 7.65283 4.6984 7.60189 5.00092 7.60189V7.95849C4.39588 8.11132 3.94209 8.36603 3.94209 9.07924V13.4604H11.606V9.13019C11.606 8.41698 11.2026 8.11132 10.5471 8.00943V7.60189C10.8496 7.60189 12.3119 7.65283 12.7152 7.65283C13.0681 7.65283 14.4799 7.60189 14.8329 7.60189V7.95849C14.2278 8.11132 13.774 8.36603 13.774 9.07924V19.4207C13.774 20.083 14.1774 20.3886 14.8329 20.5415V20.8981C14.5303 20.8981 13.0681 20.8471 12.7152 20.8471C12.3119 20.8471 10.9 20.8981 10.5471 20.8981V20.5925C11.1522 20.4396 11.606 20.1849 11.606 19.4717V14.5811H3.94209V19.4717C3.94209 20.1849 4.34545 20.4396 5.00092 20.5925V20.949C4.6984 20.949 3.18579 20.8981 2.83285 20.8981C2.47991 20.8981 1.11857 20.949 0.765625 20.949V20.5925ZM89.1014 20.5925C89.9083 20.4396 90.3118 20.134 90.3118 19.4207V9.13019C90.3118 8.41698 89.8577 8.11132 89.1014 8.00943V7.60189C89.5555 7.60189 90.9676 7.65283 91.3703 7.65283C92.0262 7.65283 93.7911 7.5 95.2025 7.5C99.8915 7.5 102.766 10.1491 102.766 14.1736C102.766 18.0962 99.791 21 94.9502 21C93.5388 21 91.9249 20.8981 91.2699 20.8981C90.8664 20.8981 89.5555 20.949 89.1014 20.949V20.5925ZM92.4296 19.9301C92.9336 20.0321 93.7911 20.083 94.4968 20.083C98.4295 20.083 100.497 17.6887 100.497 14.3264C100.497 10.8623 98.329 8.41698 94.6479 8.41698C93.8916 8.41698 92.9336 8.46792 92.4296 8.56981V19.9301ZM35.9085 19.3698C35.9085 20.0321 36.3623 20.4396 37.1186 20.5925V20.949C36.6648 20.949 35.253 20.8981 34.7992 20.8981C34.4463 20.8981 33.0345 20.949 32.5807 20.949V20.5925C33.337 20.4396 33.7404 20.083 33.7404 19.3698V9.18113C33.7404 8.56981 33.3875 8.16226 32.5807 8.00943V7.60189C33.0345 7.60189 34.3959 7.65283 34.7992 7.65283C35.4547 7.65283 37.2698 7.55094 38.0261 7.55094C41.2026 7.55094 42.9673 8.87547 42.9673 11.117C42.9673 12.9 41.6564 14.0717 39.6396 14.5811C39.6396 14.5811 40.0934 14.8358 40.5471 15.3962C41.1018 16.0585 42.6648 18.3 43.2699 19.0641C43.8748 19.8283 44.6816 20.6943 45.5387 20.6943V21C45.1354 21.1019 44.4799 21.1528 43.9757 21.1528C42.9169 21.1528 42.0598 20.7453 41.2026 19.7264C40.4967 18.8604 39.2362 16.9755 38.5303 16.0585C38.0765 15.4472 37.5219 14.9887 36.5135 14.8358C36.3119 14.7849 36.1101 14.7849 35.9085 14.734V19.3698ZM35.9085 13.9698C36.3119 14.0207 36.9673 14.0717 37.5724 14.0717C40.043 14.0717 40.7993 12.6453 40.7993 11.3717C40.7993 9.58867 39.5892 8.46792 37.4715 8.46792C37.0177 8.46792 36.3623 8.51887 35.9085 8.62076V13.9698ZM77.5558 19.3698C77.5558 20.0321 78.0091 20.4396 78.7654 20.5925V20.949C78.3121 20.949 76.8999 20.8981 76.4965 20.8981C76.1438 20.8981 74.732 20.949 74.2782 20.949V20.5925C75.0345 20.4396 75.4379 20.083 75.4379 19.3698V9.18113C75.4379 8.56981 75.0849 8.16226 74.2782 8.00943V7.60189C74.732 7.60189 76.0934 7.65283 76.4965 7.65283C77.1523 7.65283 78.9671 7.55094 79.6728 7.55094C82.8499 7.55094 84.6142 8.87547 84.6142 11.117C84.6142 12.9 83.3033 14.0717 81.2867 14.5811C81.2867 14.5811 81.7408 14.8358 82.1941 15.3962C82.7487 16.0585 84.3119 18.3 84.9171 19.0641C85.5216 19.8283 86.3285 20.6943 87.1861 20.6943V21C86.7826 21.1019 86.1268 21.1528 85.6228 21.1528C84.5643 21.1528 83.7067 20.7453 82.8499 19.7264C82.1435 18.8604 80.8832 16.9755 80.1775 16.0585C79.7234 15.4472 79.1689 14.9887 78.1602 14.8358C77.9592 14.7849 77.7575 14.7849 77.5558 14.734V19.3698ZM77.5558 13.9698C77.9592 14.0207 78.6143 14.0717 79.2195 14.0717C81.6902 14.0717 82.4465 12.6453 82.4465 11.3717C82.4465 9.58867 81.2361 8.46792 79.1183 8.46792C78.6649 8.46792 78.0091 8.51887 77.5558 8.62076V13.9698ZM16.7488 20.5925C17.606 20.3886 18.0598 19.8283 18.3623 19.1151L22.5976 8.82453C22.7992 8.41698 23.0009 7.55094 23.0009 7.55094H24.211C24.211 7.55094 24.4127 8.41698 24.6144 8.87547L29.1018 19.1661C29.4043 19.8792 29.7572 20.3886 30.6648 20.5925V20.949C30.1606 20.949 28.6984 20.8981 28.3454 20.8981C27.9925 20.8981 26.5808 20.949 26.0766 20.949V20.5925C26.732 20.4396 26.9337 20.083 26.9337 19.7774C26.9337 19.5226 26.8328 19.1661 26.6816 18.8604L25.7236 16.6698H20.7824L19.9253 18.9113C19.8244 19.1661 19.7236 19.5226 19.7236 19.7774C19.7236 20.134 19.9253 20.4396 20.6311 20.6434V21C20.1774 21 19.0177 20.949 18.7656 20.949L16.8497 21L16.7488 20.5925ZM25.169 15.6L23.0513 10.6585L21.0849 15.6H25.169ZM58.6984 20.5925C59.5556 20.3886 60.0093 19.8283 60.3119 19.1151L64.5471 8.82453C64.7488 8.41698 64.9505 7.55094 64.9505 7.55094H66.1605C66.1605 7.55094 66.3623 8.41698 66.5639 8.87547L71.0513 19.1661C71.3539 19.8792 71.7068 20.3886 72.6144 20.5925V20.949C72.1102 20.949 70.6479 20.8981 70.295 20.8981C69.9421 20.8981 68.5303 20.949 68.0261 20.949V20.5925C68.6816 20.4396 68.8833 20.083 68.8833 19.7774C68.8833 19.5226 68.7824 19.1661 68.6311 18.8604L67.6732 16.6698H62.732L61.8749 18.9113C61.774 19.1661 61.6732 19.5226 61.6732 19.7774C61.6732 20.134 61.8749 20.4396 62.5807 20.6434V21C62.1269 21 60.9673 20.949 60.7152 20.949L58.7992 21V20.5925H58.6984ZM67.0681 15.6L64.9505 10.6585L62.9841 15.6H67.0681Z" fill="#191A1F"/>
</svg>
