<svg width="139" height="42" viewBox="0 0 139 42" fill="none" xmlns="http://www.w3.org/2000/svg">
<g clip-path="url(#clip0_576_1359)">
<g clip-path="url(#clip1_576_1359)">
<path fill-rule="evenodd" clip-rule="evenodd" d="M36.7915 9.37109L24.8673 32.6815H13.6671L18.6574 23.0207H18.4335C14.3166 28.365 8.17404 31.8832 -0.578125 32.6815V23.1544C-0.578125 23.1544 5.02084 22.8237 8.31232 19.3632H-0.578125V9.37128H9.41378V17.5895L9.63804 17.5885L13.7211 9.37128H21.2777V17.5374L21.502 17.537L25.7382 9.37109H36.7915Z" fill="#191A1F"/>
<path d="M101.816 30.1079H105.034V11.6367H101.816V30.1079Z" fill="#191A1F"/>
<path fill-rule="evenodd" clip-rule="evenodd" d="M84.0777 29.9192C84.7772 30.21 85.4883 30.3553 86.2113 30.3553C87.4058 30.3553 88.4744 30.0646 89.4175 29.4831C90.3605 28.9016 91.0913 28.0999 91.61 27.0785C92.1287 26.0489 92.388 24.882 92.388 23.5775C92.388 22.2729 92.1208 21.106 91.5865 20.0766C91.0521 19.0471 90.3095 18.2495 89.3586 17.6837C88.4078 17.11 87.3272 16.8271 86.1169 16.835C85.3469 16.835 84.6082 16.9843 83.901 17.2829C83.1936 17.5815 82.6043 18.0059 82.1327 18.556C82.0964 18.5978 82.061 18.6402 82.0267 18.6829V11.6484H78.7969V30.1078H82.0031L81.9967 28.3834C82.0797 28.485 82.1682 28.5843 82.2625 28.6815C82.7733 29.2081 83.3784 29.6206 84.0777 29.9192ZM87.3782 26.9369C86.8518 27.2591 86.2506 27.4203 85.5748 27.4203C84.9068 27.4203 84.2938 27.2552 83.7359 26.9251C83.1779 26.5872 82.7339 26.1275 82.4039 25.546C82.0817 24.9645 81.9207 24.3044 81.9207 23.5657C81.9128 22.827 82.07 22.1669 82.3921 21.5854C82.7222 20.996 83.1662 20.5402 83.7241 20.218C84.282 19.888 84.8989 19.7269 85.5748 19.7347C86.2506 19.7269 86.8518 19.884 87.3782 20.2062C87.9126 20.5206 88.3213 20.9724 88.6042 21.5618C88.8949 22.1433 89.0403 22.8113 89.0403 23.5657C89.0403 24.3201 88.8949 24.9881 88.6042 25.5696C88.3213 26.1511 87.9126 26.6069 87.3782 26.9369Z" fill="#191A1F"/>
<path d="M41.4531 12.7578H45.1308L48.4207 24.7725L51.9205 12.7578H54.9853L58.7809 24.5314L61.9399 12.7578H65.3112L60.3368 30.1092H57.1659L53.3064 18.6073L49.7634 30.1092H46.5571L41.4531 12.7578Z" fill="#191A1F"/>
<path fill-rule="evenodd" clip-rule="evenodd" d="M70.7465 30.4152C69.4656 30.423 68.3105 30.1401 67.2809 29.5665C66.2594 28.985 65.4539 28.1794 64.8645 27.15C64.283 26.1205 63.9922 24.9457 63.9922 23.6255C63.9922 22.3447 64.2909 21.1855 64.8881 20.1482C65.4853 19.1109 66.2948 18.3015 67.3163 17.7199C68.3379 17.1384 69.4773 16.8477 70.7348 16.8477C72.1492 16.8477 73.387 17.162 74.4478 17.7907C75.5166 18.4193 76.3142 19.3113 76.8407 20.4665C77.375 21.6138 77.5676 22.9301 77.4183 24.4152H67.3213C67.3496 25.007 67.4972 25.5454 67.7643 26.0301C68.0629 26.5645 68.4794 26.9811 69.0137 27.2797C69.548 27.5782 70.1454 27.7275 70.8055 27.7275C71.3084 27.7198 71.7759 27.6333 72.2082 27.4683C72.6404 27.2955 73.0058 27.0636 73.3045 26.7729C73.6108 26.482 73.827 26.152 73.9527 25.7827H77.324C77.1197 26.6864 76.7111 27.4919 76.0981 28.1991C75.4851 28.8985 74.7149 29.4446 73.7877 29.8376C72.8604 30.2305 71.8466 30.423 70.7465 30.4152ZM67.7761 21.1737C67.5877 21.5021 67.4573 21.8557 67.3846 22.2346H74.0776C74.0291 21.756 73.8813 21.3198 73.6344 20.9262C73.3516 20.4625 72.9665 20.105 72.4793 19.8535C71.992 19.5942 71.442 19.4645 70.829 19.4645C70.1768 19.4645 69.5835 19.6138 69.0492 19.9124C68.5148 20.2111 68.0903 20.6315 67.7761 21.1737Z" fill="#191A1F"/>
<path d="M94.7543 17.1177C94.7543 16.0647 94.9941 15.1296 95.4734 14.3123C95.9528 13.4872 96.6246 12.8467 97.4891 12.3909C98.3613 11.9273 99.379 11.6876 100.542 11.6719V14.5362C99.9998 14.5441 99.5362 14.6581 99.1511 14.8781C98.7739 15.0903 98.4831 15.4007 98.2788 15.8093C98.0907 16.1855 97.9891 16.6217 97.9742 17.1177H100.471V19.8407H97.9723V30.1077H94.7543V19.8407H92.6797V17.1177H94.7543Z" fill="#191A1F"/>
<path fill-rule="evenodd" clip-rule="evenodd" d="M113.216 30.3917C111.903 30.3917 110.729 30.1048 109.691 29.5312C108.662 28.9497 107.852 28.148 107.263 27.1265C106.681 26.097 106.391 24.9301 106.391 23.6256C106.391 22.3133 106.681 21.1423 107.263 20.1129C107.852 19.0756 108.662 18.2701 109.691 17.6964C110.729 17.1228 111.903 16.8359 113.216 16.8359C114.536 16.8359 115.715 17.1228 116.752 17.6964C117.797 18.2701 118.61 19.0716 119.192 20.1011C119.773 21.1305 120.068 22.3054 120.076 23.6256C120.068 24.9301 119.773 26.097 119.192 27.1265C118.618 28.148 117.809 28.9497 116.764 29.5312C115.719 30.1048 114.536 30.3917 113.216 30.3917ZM113.216 27.433C113.907 27.433 114.52 27.2758 115.055 26.9615C115.589 26.6393 116.002 26.1913 116.292 25.6177C116.583 25.0362 116.728 24.3722 116.728 23.6256C116.728 22.8712 116.583 22.2032 116.292 21.6217C116.002 21.0402 115.589 20.5923 115.055 20.2779C114.52 19.9557 113.907 19.7946 113.216 19.7946C112.532 19.7946 111.923 19.9557 111.389 20.2779C110.862 20.5923 110.453 21.0402 110.163 21.6217C109.872 22.2032 109.731 22.8712 109.738 23.6256C109.738 24.3722 109.884 25.0362 110.175 25.6177C110.473 26.1913 110.882 26.6393 111.4 26.9615C111.927 27.2758 112.532 27.433 113.216 27.433Z" fill="#191A1F"/>
<path d="M123.552 17.1172H119.969L123.847 30.1071H126.982L129.533 21.8105L132.287 30.1071H135.375L139.265 17.1172H136.024L133.818 25.2026L131.379 17.1172H128.244L125.817 25.3808L123.552 17.1172Z" fill="#191A1F"/>
</g>
</g>
<defs>
<clipPath id="clip0_576_1359">
<rect width="138" height="42" fill="white" transform="translate(0.765625)"/>
</clipPath>
<clipPath id="clip1_576_1359">
<rect width="139.842" height="23.4365" fill="white" transform="translate(-0.15625 9.28125)"/>
</clipPath>
</defs>
</svg>
